<svg width="12" height="23" viewBox="0 0 12 23" fill="none" xmlns="http://www.w3.org/2000/svg">
<path fill-rule="evenodd" clip-rule="evenodd" d="M0.457083 12.558C0.16451 12.2548 0.000150681 11.8436 0.000150681 11.4148C0.000150681 10.9861 0.16451 10.5749 0.457083 10.2716L9.28557 1.1245C9.42954 0.970062 9.60174 0.846878 9.79215 0.762135C9.98255 0.677392 10.1873 0.632786 10.3946 0.63092C10.6018 0.629055 10.8073 0.669967 10.9991 0.751269C11.1909 0.832571 11.3651 0.952636 11.5117 1.10446C11.6582 1.25628 11.7741 1.43681 11.8525 1.63553C11.931 1.83425 11.9705 2.04717 11.9687 2.26187C11.9669 2.47657 11.9238 2.68874 11.842 2.88602C11.7603 3.0833 11.6414 3.26172 11.4923 3.41088L3.76718 11.4148L11.4923 19.4188C11.7766 19.7237 11.9339 20.1322 11.9303 20.5561C11.9268 20.9801 11.7627 21.3857 11.4733 21.6855C11.1839 21.9853 10.7925 22.1553 10.3833 22.159C9.97413 22.1627 9.57991 21.9997 9.28557 21.7052L0.457083 12.558Z" fill="white"/>
</svg>
