<svg width="439" height="443" viewBox="0 0 439 443" fill="none" xmlns="http://www.w3.org/2000/svg">
<path d="M435.423 171.255C430.555 112.247 428.122 82.7424 416.793 63.6524C384.356 8.99485 290.051 -4.00342 230.49 0.980215C150.751 7.65191 59.5302 52.7226 19.377 139.744C-17.0933 218.783 -0.276844 308.25 54.6756 366.775C155.412 474.06 363.209 454.905 413.97 384.507C434.228 356.412 435.688 311.537 437.833 245.618C438.866 213.886 436.854 188.599 435.423 171.255Z" fill="#F2F8FF"/>
<g opacity="0.3">
<path d="M207.453 379.856C194.344 363.822 177.614 338.385 172.952 304.937C166.838 261.07 186.853 241.965 194.413 170.072C199.193 124.614 202.071 92.8422 181.476 72.9137C165.337 57.2967 136.715 50.8229 117.505 60.768C101.533 69.0374 90.1972 89.6264 85.5621 104.781C81.7843 117.132 82.258 126.526 74.0955 132.214C65.7537 138.027 58.2319 133.113 50.6073 137.227C35.1445 145.569 38.8289 180.482 39.4246 186.124C46.0489 248.891 96.651 297.339 118.978 318.207C137.439 335.461 166.411 359.032 207.453 379.856Z" fill="url(#paint0_linear_716_1153)"/>
<mask id="mask0_716_1153" style="mask-type:luminance" maskUnits="userSpaceOnUse" x="38" y="56" width="170" height="324">
<path d="M207.453 379.856C194.344 363.822 177.614 338.385 172.952 304.937C166.838 261.07 186.853 241.965 194.413 170.072C199.193 124.614 202.071 92.8422 181.476 72.9137C165.337 57.2967 136.715 50.8229 117.505 60.768C101.533 69.0374 90.1972 89.6264 85.5621 104.781C81.7843 117.132 82.258 126.526 74.0955 132.214C65.7537 138.027 58.2319 133.113 50.6073 137.227C35.1445 145.569 38.8289 180.482 39.4246 186.124C46.0489 248.891 96.651 297.339 118.978 318.207C137.439 335.461 166.411 359.032 207.453 379.856Z" fill="white"/>
</mask>
<g mask="url(#mask0_716_1153)">
<path d="M223.116 393.287C198.333 379.911 177.44 365.103 161.016 349.276C136.709 325.851 122.953 300.821 120.132 274.88C117.926 254.591 122.535 233.526 128.371 206.857C133.208 184.749 138.626 169.529 143.406 156.102C149.603 138.694 154.498 124.944 155.115 104.204C155.743 83.1328 151.625 61.5512 142.878 40.0585L143.886 39.6484C152.691 61.2824 156.835 83.0126 156.203 104.236C155.58 125.147 150.66 138.969 144.431 156.467C139.662 169.864 134.256 185.049 129.433 207.09C123.392 234.7 119.027 254.65 121.214 274.762C127.161 329.453 180.192 368.883 223.633 392.33L223.116 393.287Z" fill="white"/>
<path d="M132.427 191.375L132.331 190.769C125.641 148.707 107.351 120.521 93.1859 104.283C77.85 86.7029 63.9434 78.9742 63.8047 78.8982L64.3274 77.9443C64.4678 78.0214 78.5441 85.8437 94.0053 103.568C108.195 119.834 126.494 148.003 133.305 189.977C136.293 189.012 150.216 184.116 165.051 172.402C180.417 160.27 199.936 138.126 205.672 101.527L206.747 101.696C200.953 138.663 181.222 161.03 165.689 173.284C148.86 186.562 133.174 191.161 133.018 191.206L132.427 191.375Z" fill="white"/>
<path d="M120.99 251.283L120.629 251.123C97.0899 240.687 76.4075 203.987 63.202 175.037C48.921 143.73 40.0606 114.497 39.9727 114.205L41.0142 113.892C41.1019 114.183 49.9447 143.355 64.1964 174.597C82.8985 215.593 102.431 241.64 120.712 249.968C123.002 247.458 139.628 229.488 159.625 214.472C181.164 198.297 226.396 197.72 226.851 197.716L226.86 198.804C226.409 198.808 181.531 199.382 160.278 215.341C138.922 231.378 121.428 250.794 121.254 250.989L120.99 251.283Z" fill="white"/>
<path d="M155.065 342.51L154.02 342.248C153.801 342.193 131.856 336.619 104.116 322.781C78.5089 310.006 42.5719 287.371 16.7923 252.087L-32.9883 183.952L-32.1099 183.311L17.6707 251.445C43.3149 286.544 79.0849 309.074 104.577 321.794C128.799 333.881 148.576 339.64 153.242 340.915C148.505 328.867 147.767 316.864 151.051 305.224C153.747 295.666 159.145 286.339 167.095 277.502C180.602 262.489 197.046 253.967 197.211 253.883L197.707 254.85C197.544 254.934 181.255 263.379 167.884 278.251C155.596 291.92 143.325 313.99 154.654 341.513L155.065 342.51Z" fill="white"/>
</g>
</g>
<g opacity="0.5">
<path d="M189.806 364.007C161.074 369.11 123.86 370.949 86.4844 358.848C76.9462 355.76 18.023 336.683 20.9751 306.903C22.015 296.413 29.8542 293.454 31.4596 279.455C33.3619 262.867 23.5733 256.404 14.9949 237.588C9.8762 226.361 -5.10407 193.506 10.7585 171.214C20.2376 157.893 40.3016 148.948 56.6144 150.459C80.5417 152.676 91.7099 176.956 109.98 218.415C126.176 255.168 124.445 265.158 136.515 291.388C145.472 310.855 161.038 337.108 189.806 364.007Z" fill="url(#paint1_linear_716_1153)"/>
<mask id="mask1_716_1153" style="mask-type:luminance" maskUnits="userSpaceOnUse" x="3" y="150" width="187" height="218">
<path d="M189.806 364.008C161.074 369.111 123.86 370.95 86.4844 358.849C76.9462 355.761 18.023 336.684 20.9751 306.904C22.015 296.414 29.8542 293.455 31.4596 279.456C33.3619 262.868 23.5733 256.405 14.9949 237.589C9.8762 226.362 -5.10407 193.507 10.7585 171.215C20.2376 157.894 40.3016 148.949 56.6144 150.46C80.5417 152.677 91.7099 176.957 109.98 218.416C126.176 255.169 124.445 265.159 136.515 291.389C145.472 310.856 161.038 337.109 189.806 364.008Z" fill="white"/>
</mask>
<g mask="url(#mask1_716_1153)">
<path d="M238.147 371.589C233.057 371.589 227.981 371.333 222.921 370.822C182.765 366.76 145.799 346.052 113.05 309.271C79.016 271.046 58.0548 225.023 46.4635 193.145C38.3929 170.949 36.1943 145.251 39.9292 116.765L41.0079 116.906C37.2959 145.218 39.4754 170.743 47.4859 192.773C61.5853 231.548 115.913 358.906 223.031 369.739C252.959 372.768 283.497 366.759 313.792 351.882L314.271 352.858C288.908 365.313 263.369 371.589 238.147 371.589Z" fill="white"/>
<path d="M75.2642 255.079L74.7832 254.829C7.09677 219.767 1.17094 167.267 0.966863 152.012C0.962914 151.699 0.962128 151.499 0.953125 151.419L2.03148 151.276C2.04586 151.383 2.04854 151.545 2.05454 151.998C2.25578 167.063 8.10816 218.827 74.7956 253.61C76.0301 251.122 81.6634 239.267 85.4904 222.87C89.4509 205.901 92.2319 180.451 82.9888 155.58L84.0086 155.201C93.3499 180.337 90.5427 206.024 86.5425 223.148C82.2115 241.687 75.5816 254.472 75.5149 254.599L75.2642 255.079Z" fill="white"/>
<path d="M70.7149 316.452C55.4086 316.452 43.5097 313.074 34.9629 309.269C18.4025 301.896 10.4765 291.342 10.3984 291.236L11.2732 290.589C11.35 290.694 19.1425 301.052 35.4648 308.302C50.4948 314.978 76.0366 320.305 112.441 307.852C113.402 304.088 123.379 262.812 113.448 211.447L102.933 157.061L104.001 156.854L114.516 211.241C124.935 265.128 113.535 307.988 113.419 308.414L113.343 308.692L113.071 308.786C96.8373 314.371 82.7266 316.452 70.7149 316.452Z" fill="white"/>
</g>
</g>
<path d="M339.762 91.1184L195.742 92.2783C191 92.3165 186.578 97.2531 185.851 103.299L170.348 232.231C169.626 238.235 172.83 243.26 177.521 243.488L319.956 250.414C325.18 250.667 330.097 245.675 330.889 239.31L347.893 102.618C348.69 96.2055 345.045 91.0759 339.762 91.1184Z" fill="url(#paint2_linear_716_1153)"/>
<path d="M315.903 284.089L173.746 275.459C169.065 275.175 164.704 279.625 163.984 285.616L161.035 310.013C160.316 315.994 163.49 321.533 168.155 321.899L309.836 332.995C315.032 333.402 319.921 328.067 320.709 321.726L323.951 295.81C324.741 289.458 321.116 284.405 315.903 284.089Z" fill="url(#paint3_linear_716_1153)"/>
<path d="M307.316 352.535L165.841 340.456C161.182 340.058 156.832 344.641 156.114 350.612L153.167 375.167C152.451 381.128 155.622 386.347 160.267 386.826L301.272 401.359C306.442 401.892 311.285 397.205 312.07 390.887L315.295 364.886C316.082 358.559 312.504 352.978 307.316 352.535Z" fill="url(#paint4_linear_716_1153)"/>
<path d="M186.094 71.5338L147.047 396.089C146.461 400.955 149.815 405.318 154.514 405.784L317.152 423.639C327.115 424.259 332.57 419.169 333.185 413.994L374.18 68.9377C374.791 63.792 369.904 59.1318 359.898 59.1318L195.78 62.5884C191.029 62.668 186.677 66.6931 186.094 71.5338Z" fill="url(#paint5_linear_716_1153)"/>
<path d="M178.774 70.9753L139.512 397.154C138.923 402.045 142.289 406.43 147.004 406.899L315.614 423.686C320.901 424.212 325.745 420.388 326.363 415.187L367.589 68.3474C368.204 63.1752 364.321 59.0177 358.977 59.1079L188.498 61.9842C183.729 62.0646 179.36 66.1105 178.774 70.9753Z" fill="url(#paint6_linear_716_1153)"/>
<path d="M181.973 88.9668L145.582 391.399C145.032 395.968 148.184 400.057 152.598 400.487L311.17 415.901C316.084 416.378 320.587 412.809 321.163 407.968L359.261 87.5681C359.834 82.7517 356.229 78.8548 351.265 78.9078L191.066 80.6137C186.606 80.6612 182.52 84.4199 181.973 88.9668Z" fill="url(#paint7_linear_716_1153)"/>
<path d="M267.007 70.7508C266.799 72.4872 268.045 73.877 269.792 73.8551C271.541 73.8331 273.129 72.4046 273.337 70.6649C273.545 68.925 272.294 67.5353 270.545 67.5609C268.798 67.5863 267.215 69.0146 267.007 70.7508Z" fill="url(#paint8_linear_716_1153)"/>
<g opacity="0.2">
<path d="M209.387 291.978C241.85 231.958 290.345 213.993 304.946 152.136C312.838 118.7 307.461 86.6969 298.404 60.129L358.975 59.1069C364.319 59.0169 368.201 63.1742 367.587 68.3465L326.361 415.186C325.743 420.388 320.899 424.212 315.612 423.685L183.068 410.489C182.088 356.709 194.916 318.732 209.387 291.978Z" fill="white"/>
</g>
<path d="M330.874 236.689C330.083 243.052 325.166 248.043 319.943 247.79L177.539 240.883C172.85 240.655 169.645 235.633 170.367 229.631L185.867 100.753C186.594 94.7097 191.015 89.7747 195.756 89.736L339.745 88.5608C345.027 88.5177 348.672 93.6446 347.875 100.054L330.874 236.689Z" fill="white"/>
<path d="M320.694 319.071C319.906 325.41 315.018 330.743 309.824 330.336L168.173 319.261C163.509 318.896 160.336 313.36 161.055 307.381L164.002 282.995C164.723 277.006 169.082 272.557 173.763 272.841L315.889 281.451C321.101 281.767 324.725 286.817 323.935 293.166L320.694 319.071Z" fill="white"/>
<path d="M312.059 388.203C311.274 394.519 306.433 399.204 301.263 398.672L160.289 384.16C155.646 383.682 152.474 378.467 153.191 372.507L156.137 347.963C156.855 341.994 161.203 337.413 165.862 337.81L307.306 349.868C312.493 350.31 316.07 355.889 315.284 362.214L312.059 388.203Z" fill="white"/>
<path d="M199.644 117.002L198.601 108.321H198.548C198.41 110.086 198.305 111.264 198.234 111.854L197.614 116.998L195.973 116.995L197.305 105.941L199.809 105.935L200.843 114.399H200.879L204.085 105.926L206.601 105.921L205.262 117.013L203.539 117.01L204.173 111.763C204.203 111.516 204.24 111.23 204.285 110.907C204.33 110.583 204.461 109.724 204.677 108.328H204.623L201.331 117.005L199.644 117.002Z" fill="url(#paint9_linear_716_1153)"/>
<path d="M216.39 111.453C216.167 113.296 215.634 114.712 214.794 115.701C213.954 116.689 212.862 117.181 211.519 117.178C210.178 117.176 209.208 116.68 208.61 115.691C208.012 114.703 207.825 113.286 208.048 111.438C208.271 109.59 208.802 108.179 209.639 107.203C210.477 106.226 211.569 105.736 212.915 105.733C214.263 105.73 215.235 106.221 215.831 107.204C216.427 108.188 216.613 109.604 216.39 111.453ZM209.99 111.453C209.84 112.694 209.912 113.629 210.207 114.257C210.502 114.886 211.019 115.201 211.758 115.202C213.241 115.204 214.134 113.954 214.437 111.453C214.74 108.946 214.153 107.694 212.678 107.696C211.938 107.697 211.343 108.013 210.891 108.645C210.44 109.276 210.14 110.212 209.99 111.453Z" fill="url(#paint10_linear_716_1153)"/>
<path d="M225.678 117.054L223.294 117.049L220.478 108.607H220.423C220.319 110.097 220.229 111.16 220.152 111.795L219.516 117.042L217.848 117.039L219.197 105.895L221.555 105.89L224.378 114.248H224.42C224.535 112.796 224.63 111.77 224.703 111.169L225.344 105.882L227.033 105.878L225.678 117.054Z" fill="url(#paint11_linear_716_1153)"/>
<path d="M236.287 111.359C236.063 113.206 235.473 114.619 234.519 115.6C233.565 116.58 232.301 117.068 230.728 117.065L228.215 117.06L229.573 105.873L232.362 105.867C233.814 105.864 234.885 106.345 235.572 107.31C236.259 108.275 236.498 109.625 236.287 111.359ZM234.317 111.421C234.609 109.014 233.911 107.811 232.223 107.813L231.219 107.814L230.334 115.104L231.143 115.105C232.959 115.107 234.018 113.879 234.317 111.421Z" fill="url(#paint12_linear_716_1153)"/>
<path d="M243.234 117.089L242.91 114.412L239.646 114.408L238.673 117.08L236.633 117.076L241.158 105.802L243.481 105.797L245.284 117.093L243.234 117.089ZM242.7 112.412C242.394 109.987 242.223 108.616 242.186 108.298C242.15 107.981 242.126 107.729 242.116 107.545C241.901 108.201 241.318 109.824 240.366 112.411L242.7 112.412Z" fill="url(#paint13_linear_716_1153)"/>
<path d="M250.337 110.471L252.785 105.824L254.849 105.819L251.013 112.715L250.478 117.104L248.58 117.1L249.105 112.792L246.969 105.836L249.036 105.832L250.337 110.471Z" fill="url(#paint14_linear_716_1153)"/>
<path d="M320.073 234.364L179.227 228.206L179.866 222.938L320.786 228.818L320.073 234.364Z" fill="url(#paint15_linear_716_1153)"/>
<path d="M199.852 216.853L185.668 216.297L190.862 172.953L205.087 173.279L199.852 216.853Z" fill="url(#paint16_linear_716_1153)"/>
<path d="M218.431 217.58L204.051 217.017L212.255 149.47L226.702 149.672L218.431 217.58Z" fill="url(#paint17_linear_716_1153)"/>
<path d="M237.702 218.334L223.117 217.763L226.825 186.981L241.436 187.387L237.702 218.334Z" fill="url(#paint18_linear_716_1153)"/>
<path d="M256.813 219.083L242.023 218.504L248.746 163.684L263.591 163.966L256.813 219.083Z" fill="url(#paint19_linear_716_1153)"/>
<path d="M276.19 219.842L261.191 219.254L266.607 174.688L281.65 175.032L276.19 219.842Z" fill="url(#paint20_linear_716_1153)"/>
<path d="M296.295 220.629L281.078 220.033L284.89 188.594L300.134 189.017L296.295 220.629Z" fill="url(#paint21_linear_716_1153)"/>
<path d="M316.24 221.41L300.805 220.805L309.464 150.832L324.974 151.049L316.24 221.41Z" fill="url(#paint22_linear_716_1153)"/>
<path d="M334.989 114.613L289.125 114.565L289.822 108.795L335.708 108.748L334.989 114.613Z" fill="url(#paint23_linear_716_1153)"/>
<path d="M271.516 312.136L277.288 300.752L271.598 300.363L271.909 297.832L280.198 298.391L279.964 300.285L274.07 312.321L271.516 312.136Z" fill="url(#paint24_linear_716_1153)"/>
<path d="M292.596 313.668L292.17 310.195L287.915 309.891L286.65 313.236L283.992 313.042L289.875 298.966L292.903 299.17L295.27 313.862L292.596 313.668ZM291.893 307.604C291.492 304.458 291.267 302.68 291.219 302.268C291.17 301.857 291.139 301.531 291.126 301.293C290.847 302.118 290.088 304.151 288.851 307.39L291.893 307.604Z" fill="url(#paint25_linear_716_1153)"/>
<path d="M302.132 314.36L300.696 302.879L300.624 302.874C300.442 305.175 300.303 306.709 300.208 307.476L299.381 314.16L297.156 313.999L298.933 299.636L302.327 299.865L303.752 311.062L303.801 311.065L308.129 300.256L311.546 300.487L309.756 314.914L307.417 314.744L308.263 307.923C308.303 307.601 308.354 307.229 308.414 306.809C308.474 306.389 308.649 305.274 308.939 303.463L308.866 303.458L304.422 314.527L302.132 314.36Z" fill="url(#paint26_linear_716_1153)"/>
<path d="M255.659 379.587L253.251 379.352L254.255 371.175L254.444 369.834L254.663 368.368C254.202 368.827 253.885 369.126 253.71 369.266L252.243 370.447L251.305 368.542L255.415 365.26L257.396 365.443L255.659 379.587Z" fill="url(#paint27_linear_716_1153)"/>
<path d="M268.044 373.612C267.739 376.092 267.183 377.896 266.379 379.023C265.575 380.15 264.49 380.646 263.125 380.513C261.804 380.384 260.883 379.673 260.364 378.38C259.845 377.088 259.733 375.245 260.027 372.849C260.335 370.35 260.887 368.538 261.685 367.413C262.484 366.288 263.562 365.788 264.922 365.913C266.247 366.036 267.172 366.75 267.698 368.056C268.224 369.363 268.339 371.215 268.044 373.612ZM262.43 373.078C262.217 374.817 262.185 376.074 262.335 376.85C262.485 377.627 262.848 378.042 263.423 378.098C263.987 378.153 264.442 377.811 264.787 377.072C265.133 376.333 265.411 375.102 265.623 373.381C265.837 371.64 265.864 370.378 265.704 369.593C265.544 368.81 265.183 368.391 264.624 368.339C264.054 368.286 263.599 368.628 263.26 369.364C262.921 370.101 262.644 371.339 262.43 373.078Z" fill="url(#paint28_linear_716_1153)"/>
<path d="M281.291 382.091L280.869 378.613L276.643 378.205L275.386 381.514L272.746 381.256L278.592 367.344L281.6 367.622L283.947 382.35L281.291 382.091ZM280.595 376.018C280.197 372.868 279.974 371.087 279.926 370.674C279.877 370.262 279.847 369.936 279.833 369.698C279.556 370.515 278.803 372.526 277.573 375.73L280.595 376.018Z" fill="url(#paint29_linear_716_1153)"/>
<path d="M290.763 383.016L289.339 371.515L289.267 371.509C289.085 373.802 288.947 375.331 288.853 376.094L288.03 382.749L285.82 382.533L287.588 368.234L290.959 368.546L292.372 379.761L292.42 379.766L296.721 369.079L300.114 369.393L298.334 383.756L296.011 383.529L296.853 376.738C296.893 376.417 296.943 376.047 297.003 375.63C297.063 375.211 297.237 374.102 297.525 372.302L297.452 372.295L293.036 383.238L290.763 383.016Z" fill="url(#paint30_linear_716_1153)"/>
<path d="M226.74 297.048L171.766 293.292L172.829 284.677L227.825 288.254L226.74 297.048Z" fill="url(#paint31_linear_716_1153)"/>
<path d="M200.189 308.461L170.277 306.271L171.38 296.53L201.303 298.611L200.189 308.461Z" fill="url(#paint32_linear_716_1153)"/>
<path d="M218.546 364.971L163.816 359.846L164.887 351.033L219.641 355.976L218.546 364.971Z" fill="url(#paint33_linear_716_1153)"/>
<path d="M192.138 374.935L162.359 372.009L163.431 363.159L193.225 365.986L192.138 374.935Z" fill="url(#paint34_linear_716_1153)"/>
<g opacity="0.3">
<path d="M209.911 291.969C242.374 231.949 290.869 213.984 305.469 152.127C313.362 118.691 307.984 86.6879 298.928 60.1202L359.498 59.0981C364.842 59.0081 368.725 63.1655 368.11 68.3377L326.885 415.177C326.266 420.379 321.422 424.203 316.136 423.676L183.592 410.48C182.612 356.7 195.44 318.723 209.911 291.969Z" fill="white"/>
</g>
<path d="M131.676 45.8605C131.676 42.2441 128.721 39.1855 125.08 39.0269L30.5824 34.9168C26.4871 34.7384 23.0742 37.7216 23.0742 41.5801V117.007C23.0742 120.866 26.4758 123.966 30.5714 123.933L32.7843 123.909L32.8884 123.744L125.011 121.922C128.653 121.893 131.675 120.169 131.675 116.553V45.8605H131.676ZM49.0213 51.9947C45.5022 51.8751 42.6387 49.0616 42.6387 45.7112C42.6387 42.3609 45.5022 39.7624 49.0213 39.9069C52.5258 40.0508 55.3567 42.863 55.3567 46.1886C55.3567 49.514 52.5258 52.1138 49.0213 51.9947ZM79.1415 53.0181C75.746 52.9026 72.9827 50.1409 72.9827 46.85C72.9827 43.559 75.7458 41.0045 79.1415 41.144C82.5235 41.2828 85.2553 44.0436 85.2553 47.3105C85.2553 50.5775 82.5235 53.1331 79.1415 53.0181ZM108.215 54.0061C104.937 53.8947 102.269 51.1827 102.269 47.949C102.269 44.7154 104.937 42.2036 108.215 42.3383C111.481 42.4724 114.119 45.1834 114.119 48.3938C114.119 51.6041 111.481 54.117 108.215 54.0061Z" fill="url(#paint35_linear_716_1153)"/>
<path d="M133.651 58.9514V45.8599C133.651 42.2487 130.781 39.2719 127.149 39.1137L32.9837 35.0168C31.2638 34.9419 29.6569 35.3951 28.3939 36.2755C26.6687 37.4765 25.543 39.376 25.543 41.5986V58.9512H133.651V58.9514ZM110.304 42.4241C113.56 42.5579 116.194 45.2639 116.194 48.4731C116.194 51.6788 113.56 54.1874 110.304 54.0767C107.034 53.9655 104.371 51.2583 104.371 48.0294C104.371 44.7972 107.034 42.2898 110.304 42.4241ZM81.3045 41.2329C84.6768 41.3715 87.4036 44.1271 87.4036 47.3927C87.4036 50.6548 84.6768 53.2059 81.3045 53.0912C77.9181 52.9761 75.16 50.2193 75.16 46.9332C75.1599 43.6436 77.9181 41.0939 81.3045 41.2329ZM51.2624 39.999C54.7572 40.1426 57.5827 42.9496 57.5827 46.2737C57.5827 49.5943 54.7572 52.1893 51.2624 52.0705C47.7535 51.9513 44.895 49.143 44.895 45.7977C44.895 42.4486 47.7533 39.8548 51.2624 39.999Z" fill="url(#paint36_linear_716_1153)"/>
<path d="M25.543 55.0088V116.986C25.543 120.838 28.7491 123.942 32.8332 123.908L127.095 123.144C130.728 123.114 133.651 120.166 133.651 116.553V58.435L25.543 55.0088Z" fill="white"/>
<path d="M95.6395 67.3982C95.6395 66.5391 95.0111 65.8277 94.1308 65.8043L84.8052 65.5621C83.9145 65.5384 82.8047 66.2161 82.8047 67.0815V75.8162C82.8047 76.6815 83.9573 77.4038 84.848 77.4212L93.9159 77.5951C94.7962 77.6122 95.6395 76.9295 95.6395 76.0704V67.3982Z" fill="#BFC8D6"/>
<path d="M111.929 67.8154C111.929 66.9646 111.206 66.2581 110.342 66.235L101.62 66.0074C100.747 65.9842 100.082 66.6655 100.082 67.5222V76.171C100.082 77.0278 100.735 77.7321 101.609 77.7491L110.369 77.9167C111.233 77.9335 111.929 77.2544 111.929 76.4035L111.929 67.8154Z" fill="#BFC8D6"/>
<path d="M128.222 68.2341C128.222 67.3917 127.472 66.6905 126.625 66.668L117.979 66.4351C117.123 66.4124 116.375 67.0772 116.375 67.9254V76.4885C116.375 77.3369 117.091 78.0426 117.947 78.0594L126.614 78.2295C127.461 78.2459 128.222 77.5793 128.222 76.737V68.2341Z" fill="#BFC8D6"/>
<path d="M95.6395 83.2601C95.6395 82.401 95.0111 81.6957 94.1308 81.6807L84.8052 81.5237C83.9145 81.5085 82.8047 82.1926 82.8047 83.0581V91.7928C82.8047 92.6581 83.9573 93.3735 84.848 93.3823L93.9159 93.4714C94.7962 93.4801 95.6395 92.7914 95.6395 91.9323V83.2601Z" fill="#BFC8D6"/>
<path d="M111.929 83.5239C111.929 82.6731 111.206 81.9723 110.342 81.9576L101.62 81.8127C100.747 81.7979 100.082 82.4847 100.082 83.3416V91.9904C100.082 92.8471 100.735 93.5455 101.609 93.554L110.369 93.639C111.233 93.6475 111.929 92.9629 111.929 92.112L111.929 83.5239Z" fill="#BFC8D6"/>
<path d="M128.222 83.7863C128.222 82.9439 127.472 82.2488 126.625 82.2344L117.979 82.0832C117.123 82.0687 116.375 82.7395 116.375 83.5878V92.1508C116.375 92.9992 117.091 93.6988 117.947 93.7071L126.614 93.7957C127.461 93.8041 128.222 93.1317 128.222 92.2893V83.7863Z" fill="#BFC8D6"/>
<path d="M44.7956 82.4551C44.7956 81.5696 43.9725 80.8336 43.037 80.8178L33.607 80.6507C32.6602 80.6346 31.9609 81.3392 31.9609 82.2313V91.2376C31.9609 92.1297 32.6267 92.8639 33.5737 92.8732L43.0882 92.9735C44.0235 92.9828 44.7957 92.2788 44.7957 91.3933L44.7956 82.4551Z" fill="#BFC8D6"/>
<path d="M62.0731 82.7209C62.0731 81.8444 61.4049 81.1245 60.4885 81.109L51.0503 80.9485C50.1228 80.9327 49.2383 81.6334 49.2383 82.5165V91.4301C49.2383 92.313 50.1604 93.0401 51.0878 93.0494L60.4038 93.1407C61.3202 93.1497 62.0731 92.4457 62.0731 91.5692V82.7209Z" fill="#BFC8D6"/>
<path d="M78.8582 83.0091C78.8582 82.1413 78.176 81.4191 77.2777 81.4038L67.9132 81.2405C67.0042 81.225 66.0234 81.9131 66.0234 82.7873V91.6121C66.0234 92.4864 67.0269 93.207 67.9359 93.216L77.1449 93.3152C78.0432 93.324 78.858 92.6368 78.858 91.769V83.0091H78.8582Z" fill="#BFC8D6"/>
<path d="M95.6395 99.1232C95.6395 98.2641 95.0111 97.5649 94.1308 97.5584L84.8052 97.4864C83.9145 97.4797 82.8047 98.1703 82.8047 99.0356V107.77C82.8047 108.636 83.9573 109.344 84.848 109.345L93.9159 109.349C94.7962 109.349 95.6395 108.654 95.6395 107.795V99.1232Z" fill="#BFC8D6"/>
<path d="M111.929 99.2315C111.929 98.3808 111.206 97.6856 110.342 97.6793L101.62 97.6172C100.747 97.6108 100.082 98.3032 100.082 99.16V107.809C100.082 108.666 100.735 109.358 101.609 109.358L110.369 109.36C111.233 109.361 111.929 108.67 111.929 107.82L111.929 99.2315Z" fill="#BFC8D6"/>
<path d="M44.7956 98.8039C44.7956 97.9184 43.9725 97.1906 43.037 97.1836L33.607 97.1075C32.6602 97.1004 31.9609 97.8124 31.9609 98.7047V107.711C31.9609 108.603 32.6267 109.33 33.5737 109.33L43.0882 109.339C44.0235 109.339 44.7957 108.628 44.7957 107.742L44.7956 98.8039Z" fill="#BFC8D6"/>
<path d="M62.0731 98.904C62.0731 98.0275 61.4049 97.3139 60.4885 97.3071L51.0503 97.2354C50.1228 97.2285 49.2383 97.9362 49.2383 98.8192V107.733C49.2383 108.616 50.1604 109.335 51.0878 109.336L60.4038 109.339C61.3202 109.339 62.0731 108.628 62.0731 107.752V98.904Z" fill="#BFC8D6"/>
<path d="M78.8582 99.0309C78.8582 98.1631 78.176 97.4476 77.2777 97.4409L67.9132 97.3653C67.0042 97.3585 66.0234 98.0538 66.0234 98.9281V107.753C66.0234 108.627 67.0269 109.34 67.9359 109.341L77.1449 109.353C78.0432 109.353 78.858 108.659 78.858 107.791V99.0309H78.8582Z" fill="#BFC8D6"/>
<path d="M50.6712 23.7856C44.7677 23.487 39.8826 28.2929 39.4102 35.2991L44.3965 35.5162C44.8032 31.3299 47.515 28.2316 50.6712 28.3828C54.0823 28.5461 56.9534 32.5101 56.9534 37.0617C56.9534 41.6132 54.0823 45.34 50.6712 45.2105C48.8949 45.143 47.2596 44.0323 46.0951 42.3434C45.4203 43.2727 44.257 45.4109 45.3583 48.0642C46.9456 49.1078 48.7548 49.7318 50.6711 49.7994C56.8394 50.0172 61.8247 44.4065 61.8247 37.2717C61.8249 30.1365 56.8395 24.0978 50.6712 23.7856Z" fill="#BFC8D6"/>
<path d="M80.6828 25.2879C74.9838 24.9996 70.2687 29.7253 69.8125 36.609L74.6254 36.8184C75.0181 32.7051 77.6358 29.6588 80.6828 29.8048C83.976 29.9624 86.7481 33.8552 86.7481 38.3277C86.7481 42.8 83.976 46.4639 80.6828 46.3388C78.9679 46.2736 77.3893 45.1836 76.2653 43.5249C75.6139 44.4382 74.491 46.5398 75.554 49.146C77.0862 50.1705 78.8328 50.7823 80.6828 50.8477C86.638 51.0579 91.4518 45.5415 91.4518 38.5303C91.4518 31.5189 86.6382 25.5891 80.6828 25.2879Z" fill="#BFC8D6"/>
<path d="M109.752 26.7745C104.252 26.4964 99.7019 31.1426 99.2617 37.905L103.906 38.1072C104.285 34.066 106.811 31.0712 109.752 31.2121C112.931 31.3644 115.607 35.1867 115.607 39.5809C115.607 43.9749 112.931 47.5766 109.752 47.4557C108.097 47.3929 106.574 46.3229 105.489 44.6942C104.86 45.5919 103.776 47.6573 104.802 50.2168C106.281 51.2222 107.967 51.8222 109.752 51.8853C115.501 52.0882 120.147 46.6652 120.147 39.7764C120.147 32.8875 115.501 27.0653 109.752 26.7745Z" fill="#BFC8D6"/>
<path opacity="0.3" d="M133.651 114.177V116.555C133.651 120.166 130.781 123.117 127.149 123.147L32.8888 123.909C28.8063 123.942 25.543 120.839 25.543 116.988V41.5986C25.543 39.376 26.6403 37.4382 28.3655 36.2373C32.1142 37.5854 36.9421 41.3481 39.4147 51.5468C43.7747 69.5195 47.5265 77.1955 64.3384 76.8134C75.0842 76.5688 83.3244 77.0636 88.4603 81.7994C91.2176 84.338 93.0934 88.1095 93.9835 93.6577C94.5043 96.9041 96.8354 98.9743 100.163 100.492C103.422 101.983 107.657 102.944 112.063 103.979C120.152 105.875 129.208 108.025 133.651 114.177Z" fill="#BFC8D6"/>
<path d="M213.93 100.478C213.509 100.478 213.1 100.201 212.883 99.8046L191.151 60.105H141.748C141.089 60.105 140.555 59.6762 140.555 59.0174C140.555 58.3585 141.089 57.9297 141.748 57.9297H191.857C192.293 57.9297 192.694 58.1153 192.904 58.4975L214.976 98.7375C215.293 99.3148 215.081 100.027 214.503 100.344C214.321 100.444 214.124 100.478 213.93 100.478Z" fill="#BFC8D6"/>
<path d="M223.773 206.407C223.773 206.407 225.994 202.994 227.37 200.485C228.745 197.975 235.593 190.634 235.593 190.634C235.593 190.634 236.267 191.627 234.818 193.463C233.368 195.299 230.254 198.506 231.154 199.647C232.053 200.788 234.355 201.646 232.994 204.098C231.632 206.551 228.722 205.251 227.492 207.232C226.262 209.212 225.015 211.364 225.015 211.364L223.773 206.407Z" fill="url(#paint37_linear_716_1153)"/>
<path d="M228.463 211.68C227.188 217.044 224.832 224.549 220.21 232.677C218.171 236.262 211.793 246.814 200.148 255.939C190.672 263.359 176.217 271 163.955 273.701C155.685 275.525 148.407 275.095 144.329 270.835C135.283 261.393 146.056 237.457 148.05 233.152C153.113 234.953 161.36 237.185 171.658 236.902C175.034 236.806 183.807 236.483 193.334 232.507C210.977 225.149 219.694 210.06 222.583 204.436C223.892 206.05 225.2 207.664 226.508 209.273C227.16 210.077 227.811 210.876 228.463 211.68Z" fill="white"/>
<path opacity="0.1" d="M228.461 211.68C227.187 217.044 224.831 224.549 220.209 232.677C218.17 236.262 211.792 246.814 200.147 255.939C190.671 263.359 176.216 270.999 163.953 273.701C158.884 266.859 153.866 260.068 153.86 260.062C153.628 259.751 162.084 254.874 162.583 254.625C168.077 251.934 173.984 250.371 180.141 250.983C188.722 251.844 193.412 245.777 198.532 240.113C204.468 233.554 212.307 229.165 218.034 222.356C221.341 218.42 224.191 213.9 226.507 209.272C227.158 210.077 227.81 210.876 228.461 211.68Z" fill="url(#paint38_linear_716_1153)"/>
<path d="M128.522 424.014C127.848 424.633 127.806 426.08 127.778 427.026C127.765 427.448 127.759 427.66 127.815 427.805C128.224 428.867 130.33 428.853 133.643 428.988C138.878 429.203 140.451 429.518 140.812 428.719C141.149 427.97 140.153 426.838 140.041 426.714C139.439 426.044 138.737 425.829 137.384 425.473C134.88 424.815 133.195 424.474 132.684 424.37C129.498 423.725 128.965 423.607 128.522 424.014Z" fill="url(#paint39_linear_716_1153)"/>
<path d="M132.195 418.793L132.399 424.752C132.236 425.031 130.427 425.796 129.066 424.984L128.039 419.082L132.195 418.793Z" fill="url(#paint40_linear_716_1153)"/>
<path d="M172.621 423.19C171.721 424.083 171.435 425.801 172.129 426.692C172.81 427.568 173.936 426.999 177.03 427.257C180.343 427.533 181.168 428.363 183.457 427.861C184.381 427.658 186.023 427.133 186.027 426.481C186.03 426.022 185.224 425.742 182.536 424.679C178.722 423.171 178.742 423.101 177.925 422.92C175.872 422.466 173.81 422.01 172.621 423.19Z" fill="url(#paint41_linear_716_1153)"/>
<path d="M175.036 417.891L176.405 423.517C176.263 423.807 174.518 424.707 173.099 424.002L170.914 418.496L175.036 417.891Z" fill="url(#paint42_linear_716_1153)"/>
<path d="M166.72 295.828C165.965 314.45 166.117 335.442 167.951 358.337C169.762 380.965 172.898 401.491 176.548 419.588C174.394 420.046 172.24 420.504 170.085 420.962C164.965 415.65 158.59 407.378 155.907 396.026C154.242 388.981 155.111 385.452 154.275 376.851C152.945 363.156 149.161 355.816 145.441 344.631C142.099 334.58 138.299 319.888 136.879 300.446C146.826 298.906 156.773 297.367 166.72 295.828Z" fill="url(#paint43_linear_716_1153)"/>
<path opacity="0.3" d="M163.744 382.856C161.372 373.461 156.802 370.977 156.639 362.11C156.524 355.837 158.778 355.324 158.629 349.32C158.402 340.214 153.067 335.439 150.387 329.711C147.556 323.661 146.472 313.944 154.101 297.78C148.36 298.669 142.619 299.557 136.879 300.445C138.299 319.888 142.099 334.58 145.441 344.63C149.161 355.815 152.945 363.155 154.275 376.85C155.111 385.451 154.242 388.98 155.907 396.025C158.59 407.377 164.965 415.649 170.085 420.961C170.633 420.845 171.181 420.728 171.729 420.612C166.194 414.005 164.241 408.106 163.744 403.318C162.936 395.529 166.136 392.328 163.744 382.856Z" fill="url(#paint44_linear_716_1153)"/>
<path d="M145.19 294.663C142.626 318.261 140.27 342.313 138.15 366.804C136.558 385.183 135.141 403.337 133.887 421.26C131.703 421.412 129.519 421.564 127.335 421.715C125.447 417.701 122.982 411.585 121.483 403.835C119.662 394.422 120.493 388.935 119.991 379.254C119.428 368.395 117.898 365.955 115.692 352.177C111.215 324.216 108.977 310.236 116.076 301.993C118.381 299.317 125.513 292.676 145.19 294.663Z" fill="url(#paint45_linear_716_1153)"/>
<path d="M109.657 237.511C102.824 243.668 101.726 252.215 100.631 260.736C98.8018 274.973 102.005 288.918 103.108 293.722C104.724 300.755 106.163 303.766 105.54 309.535C104.767 316.695 101.618 320.688 103.749 323.706C105.206 325.769 108.167 326.018 113.423 326.036C124.858 326.076 128.449 324.777 136.867 324.569C142.397 324.432 148.642 324.278 156.627 325.958C163.045 327.309 167.761 329.25 172.027 326.797C175.013 325.078 176.275 322.075 176.6 321.283C178.641 316.31 176.713 311.213 175.935 309.016C174.876 306.027 173.111 294.573 169.579 271.664C168.544 264.944 167.887 259.536 165.449 251.76C163.72 246.245 162.856 243.488 161.238 241.26C154.06 231.375 139.088 231.2 133.721 231.138C126.367 231.052 116.947 230.942 109.657 237.511Z" fill="white"/>
<path opacity="0.1" d="M175.215 306.221C171.284 304.062 168.324 301.681 166.067 299.462C154.851 288.438 154.884 280.825 145.929 274.766C137.872 269.315 133.911 273.482 125.784 269.012C119.659 265.644 112.268 257.976 108.788 238.342C102.731 244.425 101.678 252.591 100.631 260.736C98.8018 274.972 102.005 288.917 103.108 293.721C104.724 300.754 106.163 303.766 105.54 309.534C104.767 316.695 101.618 320.687 103.749 323.706C105.206 325.769 108.167 326.018 113.423 326.036C124.858 326.075 128.449 324.776 136.867 324.568C142.397 324.432 148.642 324.277 156.627 325.958C163.045 327.309 167.762 329.25 172.027 326.796C175.014 325.078 176.275 322.074 176.6 321.283C178.642 316.31 176.713 311.213 175.935 309.016C175.726 308.425 175.488 307.497 175.215 306.221Z" fill="url(#paint46_linear_716_1153)"/>
<path d="M129.843 225.622C128.881 227.031 129.525 227.643 128.745 228.918C128.229 229.761 127.323 230.515 121.053 232.215C117.787 233.1 117.202 233.12 117.207 233.314C117.226 234.076 126.351 234.502 135.337 233.314C135.337 233.314 140.849 232.584 140.832 231.665C140.818 230.921 136.966 231.307 135.337 228.918C133.863 226.755 135.476 224.173 134.239 223.424C133.188 222.789 130.952 223.999 129.843 225.622Z" fill="url(#paint47_linear_716_1153)"/>
<path d="M125.539 217.866C124.139 216.113 123.889 212.717 125.724 211.063C126.81 210.084 128.607 209.733 129.94 210.284C131.418 210.895 131.316 212.196 132.866 212.711C134.119 213.128 134.54 212.396 136.163 212.711C136.589 212.794 138.379 213.142 139.212 214.518C140.379 216.442 138.624 218.973 137.954 220.418C137.623 221.132 137.007 221.356 136.442 221.883C135.66 222.614 134.435 223.776 132.437 225.721C132.273 225.114 132.024 224.362 131.634 223.542C131.484 223.226 130.882 221.993 129.982 220.953C128.139 218.823 126.755 219.387 125.539 217.866Z" fill="white"/>
<path d="M135.305 224.137C135.305 224.137 134.132 225.902 131.761 226.676C130.874 226.966 129.758 227.381 128.633 226.987C126.433 226.218 125.889 223.014 125.726 222.052C125.101 218.368 126.573 214.45 127.924 214.36C128.551 214.318 128.722 215.13 130.121 215.459C131.239 215.722 132.269 215.471 132.319 215.459C133.21 215.233 133.377 214.877 133.967 214.909C134.857 214.958 135.481 215.821 135.615 216.008C136.524 217.266 136.202 219.421 134.917 221.482C135.672 220.798 136.586 220.562 137.24 220.874C137.344 220.923 137.621 221.108 137.78 221.377C138.353 222.35 137.431 223.524 135.305 224.137Z" fill="url(#paint48_linear_716_1153)"/>
<path d="M125.577 221.089C125.577 221.089 125.726 223.699 126.824 223.149C127.923 222.6 129.022 222.051 130.121 223.149C131.22 224.248 135.924 219.67 135.924 219.67L136.714 220.403C136.714 220.403 134.516 221.501 134.516 222.6C134.516 223.699 132.472 227.258 131.769 228.644C130.913 230.332 126.873 232.728 124.627 227.545C123.839 225.727 125.577 221.089 125.577 221.089Z" fill="white"/>
<path d="M85.0481 325.284C83.032 323.231 59.4292 298.476 67.7574 271.412C75.8243 245.198 109.987 229.367 118.538 235.243C121.104 237.006 121.161 240.583 121.202 243.179C121.478 260.42 100.903 266.649 91.9384 283.556C87.7635 291.431 84.7769 304.13 91.8003 324.641C89.5498 324.855 87.2988 325.07 85.0481 325.284Z" fill="white"/>
<path d="M126.453 224.184C126.453 224.184 128.56 225.312 130.365 224.673C130.365 224.673 127.582 226.817 126.453 224.184Z" fill="url(#paint49_linear_716_1153)"/>
<path d="M91.8011 324.642C91.8011 324.642 93.0612 327.928 90.8351 334.416C88.609 340.904 86.0298 337.57 85.6889 336.105C85.3481 334.64 86.9232 325.106 86.9232 325.106L91.8011 324.642Z" fill="url(#paint50_linear_716_1153)"/>
<path d="M76.7251 421.062C76.7251 421.062 76.3583 423.979 76.6046 424.956C76.8508 425.934 85.3332 426.64 88.2124 426.3C91.0916 425.96 86.4975 423.019 84.663 422.467C82.8285 421.915 76.7251 421.062 76.7251 421.062Z" fill="url(#paint51_linear_716_1153)"/>
<path d="M80.9919 416.194L80.0979 422.047C80.0979 422.047 77.818 423.072 76.7221 422.059L76.6016 415.933L80.9919 416.194Z" fill="url(#paint52_linear_716_1153)"/>
<path d="M33.1762 415.933C33.1762 415.933 34.9759 417.269 34.496 418.868C34.0165 420.468 29.8166 426.877 26.8235 428.696C23.8306 430.515 24.7689 426.725 25.6398 424.365C26.5108 422.004 28.7364 416.805 29.6053 415.933C30.4739 415.062 33.1762 415.933 33.1762 415.933Z" fill="url(#paint53_linear_716_1153)"/>
<path d="M36.4114 409.502C35.5414 411.927 34.7045 413.921 34.0501 415.392C32.6018 418.645 31.8103 419.866 30.9139 420.924C30.1323 421.846 28.2818 423.813 27.7842 423.486C27.2791 423.154 28.6329 420.762 31.2426 413.758C31.6216 412.741 32.8184 409.502 32.8184 409.502H36.4114Z" fill="url(#paint54_linear_716_1153)"/>
<path d="M98.7583 308.168C99.3792 314.263 99.9747 323.725 99.0843 335.207C97.9235 350.167 94.932 359.634 91.1806 375.585C88.8878 385.333 85.7989 399.681 83.0029 417.624C82.3542 417.996 80.4459 418.972 77.9891 418.607C76.6132 418.403 75.5844 417.856 74.9769 417.463C67.6421 395.05 69.8082 381.16 73.3482 372.507C74.857 368.818 76.6865 365.908 77.664 360.238C78.9579 352.736 77.3582 348.543 75.0767 331.166C73.4504 318.781 73.7318 316.866 74.8141 315.009C79.139 307.583 92.3674 307.728 98.7583 308.168Z" fill="url(#paint55_linear_716_1153)"/>
<path d="M73.5102 310.774C69.0168 333.98 64.6067 346.167 61.2695 353.061C60.4464 354.761 57.7003 360.246 55.1043 368.109C52.8061 375.07 51.8484 380.19 51.3581 382.443C49.8089 389.556 45.9802 399.942 35.6783 413.564C35.5498 413.64 33.7931 414.633 32.1138 413.748C31.2639 413.299 30.8401 412.584 30.6719 412.251C32.0186 399.227 33.5647 388.283 34.9066 379.837C35.1883 378.065 36.4284 370.315 38.373 360.075C39.1341 356.067 40.2492 350.196 41.585 344.165C43.2481 336.655 45.7987 326.438 49.7293 314.195C57.6561 313.055 65.5834 311.915 73.5102 310.774Z" fill="url(#paint56_linear_716_1153)"/>
<path d="M88.7992 242.171C103.991 248.547 112.998 257.291 117.787 262.876C123.072 269.04 128.42 275.466 126.99 283.122C126.109 287.838 122.827 292.104 118.707 294.165C109.363 298.84 95.6167 292.219 90.6397 283.122C89.1908 280.473 88.8649 278.309 88.7992 255.975C88.7829 250.407 88.7888 245.691 88.7992 242.171Z" fill="url(#paint57_linear_716_1153)"/>
<path d="M78.656 235.084C73.2053 236.986 73.8259 240.037 69.3332 241.299C65.0226 242.51 59.0189 241.228 56.4807 237.217C54.1879 233.594 55.4368 228.874 55.5453 228.487C56.457 225.243 58.2514 224.536 57.8928 222.522C57.389 219.693 53.6006 219.69 53.0098 216.942C52.4609 214.389 54.9582 210.799 57.8559 210.06C60.979 209.263 62.5582 212.29 66.32 211.491C68.6407 210.997 68.5128 209.744 71.134 209.157C74.8562 208.322 78.0032 210.2 78.4153 210.454C79.1758 210.923 81.6323 212.439 82.4318 215.218C83.2283 217.986 81.6981 219.634 82.7668 220.766C83.9898 222.061 86.2557 220.176 88.6814 221.431C90.7173 222.484 91.9763 225.288 91.5655 227.744C91.1346 230.32 88.9613 231.734 87.6681 232.577C84.3536 234.738 82.5207 233.735 78.656 235.084Z" fill="white"/>
<path d="M107.894 279.211C107.121 276.993 103.757 267.354 106.974 264.947C108.831 263.558 113.402 264.201 125.633 273.888C123.849 270.011 120.809 266.401 117.787 262.876C112.998 257.291 103.991 248.547 88.7992 242.171C88.7888 245.691 88.7829 250.407 88.7992 255.975C88.8651 278.309 89.1908 280.473 90.6397 283.122C95.4699 291.951 108.56 298.445 117.869 294.547C114.317 291.124 110.298 286.098 107.894 279.211Z" fill="url(#paint58_linear_716_1153)"/>
<path d="M102.629 306.146C102.489 304.129 102.212 300.676 100.303 287.263C97.5304 267.775 97.6441 272.096 97.0822 266.097C96.5537 260.456 96.2383 255.335 93.8614 248.612C93.0288 246.258 92.177 244.367 91.5609 243.091C89.2602 242.324 80.0275 240.064 75.4567 239.87C70.2047 239.647 65.2869 239.439 61.4124 239.674C61.0502 239.547 56.7537 239.895 52.9103 241.25C49.7685 242.358 47.2668 243.562 45.5484 244.471C48.3856 246.672 52.1831 250.369 52.9103 255.514C53.7205 261.245 49.9815 263.546 46.4686 274.379C43.9758 282.066 43.1235 289.341 42.7875 292.324C41.7006 301.978 42.8371 304.806 40.0268 308.888C36.8391 313.518 32.9355 313.426 32.2047 317.171C31.3966 321.311 35.3383 325.674 38.1863 327.753C44.1244 332.088 50.9564 329.736 61.1925 328.214C87.3549 324.322 97.636 330.572 102.251 323.536C103.684 321.351 103.333 316.282 102.629 306.146Z" fill="url(#paint59_linear_716_1153)"/>
<path opacity="0.3" d="M47.3886 327.753C51.163 325.623 50.4493 321.847 54.2904 319.471C60.0292 315.922 65.2506 322.105 71.7752 319.471C80.0587 316.127 81.2857 302.267 81.4379 300.146C81.7253 296.143 82.3136 287.946 77.2968 283.581C70.9662 278.074 61.2513 283.489 57.9715 278.52C56.1129 275.705 58.9082 273.475 58.4317 266.557C58.0864 261.546 55.9871 253.574 51.4418 251.099C52.1506 252.427 52.6818 253.899 52.9102 255.514C53.7203 261.246 49.9816 263.546 46.4685 274.379C43.9756 282.066 43.1233 289.341 42.7875 292.324C41.7006 301.978 42.8371 304.806 40.0268 308.888C36.8391 313.519 32.9355 313.426 32.2047 317.171C31.3966 321.311 35.3382 325.675 38.1863 327.754C38.4057 327.914 38.6274 328.066 38.8514 328.211C41.8319 329.031 44.8741 329.173 47.3886 327.753Z" fill="url(#paint60_linear_716_1153)"/>
<path d="M79.0264 231.485C78.5662 231.945 76.7259 235.626 73.965 237.927C72.5076 239.142 67.0632 239.768 65.6827 239.768C64.3023 239.768 65.2227 241.148 71.6644 242.068C78.1061 242.989 82.2474 242.989 83.6276 241.608C83.6276 241.608 79.0264 240.688 80.4067 237.467C81.7873 234.246 79.0264 231.485 79.0264 231.485Z" fill="url(#paint61_linear_716_1153)"/>
<path d="M77.0559 234.3C77.0559 234.3 78.2521 237.073 81.1967 236.696C83.8331 236.359 83.8017 229.739 82.0321 228.585C81.4415 228.2 80.2342 228.038 79.3317 228.353C78.697 228.574 76.7941 230.084 77.178 232.345C76.6032 232.027 76.0249 232.067 75.8203 232.341C75.5608 232.688 75.963 233.332 76.054 233.478C76.3694 233.984 76.8368 234.211 77.0559 234.3Z" fill="url(#paint62_linear_716_1153)"/>
<path d="M113.552 270.251C113.689 269.859 114.037 269.563 114.45 269.606C114.913 269.653 115.374 269.931 115.356 270.857C115.319 272.697 114.354 274.979 113.425 275.42C112.495 275.862 111.124 275.375 111.621 273.544C112.018 272.079 113.287 271.011 113.552 270.251Z" fill="url(#paint63_linear_716_1153)"/>
<path d="M108.779 285.868L94.6655 287.125C94.1203 287.174 93.4769 286.429 93.6172 285.902L100.924 259.888C101.046 259.433 101.437 259.124 101.863 259.148L116.052 259.624C116.508 259.651 116.285 260.816 116.129 261.359L109.924 284.745C109.815 285.123 109.133 285.837 108.779 285.868Z" fill="url(#paint64_linear_716_1153)"/>
<path d="M109.212 285.26L95.0278 286.708C94.4841 286.763 94.1283 286.32 94.2821 285.774L101.613 259.789C101.733 259.363 102.106 259.066 102.508 259.075L115.989 259.394C116.43 259.405 116.708 259.896 116.567 260.412L110.024 284.504C109.916 284.901 109.57 285.224 109.212 285.26Z" fill="url(#paint65_linear_716_1153)"/>
<path opacity="0.3" d="M102.668 270.275C102.995 272.591 104.786 272.006 106.119 274.767C107.812 278.271 105.93 281.523 107.559 282.76C108.057 283.137 108.914 283.337 110.492 282.781L110.024 284.504C109.916 284.901 109.57 285.224 109.212 285.26L95.0278 286.708C94.4843 286.763 94.1283 286.32 94.2821 285.774L101.613 259.789C101.733 259.363 102.106 259.066 102.508 259.075L104.533 259.123C104.737 259.995 104.868 261.006 104.805 262.135C104.589 266.012 102.284 267.561 102.668 270.275Z" fill="url(#paint66_linear_716_1153)"/>
<path d="M54.7507 256.894C54.7279 260.231 53.8923 260.698 52.4501 266.557C50.7329 273.532 49.4887 278.586 51.5298 282.201C54.108 286.768 60.9613 287.328 65.7938 287.723C77.5676 288.685 87.6574 284.762 94.5457 280.952C94.7016 280.866 94.878 280.827 95.0554 280.842C96.6025 280.978 96.9879 281.243 98.2124 281.414C98.7229 281.486 99.0739 281.965 98.9854 282.474C98.2029 286.965 94.7758 303.757 77.7571 311.189C75.2508 312.284 62.0156 317.743 47.3889 311.649C43.1036 309.864 34.8135 305.468 29.4439 296.005C23.4121 285.375 23.5393 272.726 28.0637 262.876C31.3036 255.823 36.0308 251.874 40.487 248.152C45.9016 243.629 47.8711 243.791 48.7692 244.011C52.7818 244.992 54.785 251.868 54.7507 256.894Z" fill="url(#paint67_linear_716_1153)"/>
<path opacity="0.3" d="M76.3771 305.208C71.4708 304.742 70.4102 302.163 62.5732 300.607C50.7266 298.255 45.8444 302.699 42.3275 299.226C38.2774 295.227 44.1287 288.716 40.487 278.06C37.914 270.531 33.6403 269.825 32.2048 264.717C31.4921 262.181 31.5637 258.847 33.6745 254.428C31.5863 256.728 29.6468 259.43 28.0637 262.876C23.5393 272.726 23.4121 285.375 29.4439 296.005C34.8135 305.468 43.1037 309.864 47.3889 311.65C62.0157 317.744 75.2508 312.284 77.7571 311.19C84.948 308.049 89.7058 303.238 92.8694 298.39C85.8807 304.426 80.4128 305.591 76.3771 305.208Z" fill="url(#paint68_linear_716_1153)"/>
<path d="M99.0697 273.66C99.0697 273.66 98.4605 271.618 96.62 271.618C94.7795 271.618 93.3991 273.459 94.7795 277.14C96.1599 280.821 95.6997 281.281 95.6997 281.281C95.6997 281.281 98.0004 282.201 98.0004 281.281C98.0004 280.361 97.1665 277.17 97.3534 276.464C97.5401 275.759 97.8384 273.86 99.0697 273.66Z" fill="url(#paint69_linear_716_1153)"/>
<path d="M361.561 423.867C361.561 423.867 361.896 426.539 361.671 427.433C361.445 428.329 353.679 428.975 351.042 428.664C348.406 428.353 352.613 425.66 354.292 425.155C355.972 424.649 361.561 423.867 361.561 423.867Z" fill="url(#paint70_linear_716_1153)"/>
<path d="M357.652 419.41L358.471 424.77C358.471 424.77 360.559 425.708 361.562 424.781L361.672 419.171L357.652 419.41Z" fill="url(#paint71_linear_716_1153)"/>
<path d="M401.436 419.171C401.436 419.171 399.787 420.394 400.227 421.858C400.666 423.323 404.512 429.191 407.252 430.857C409.993 432.522 409.134 429.052 408.336 426.891C407.539 424.73 405.501 419.969 404.705 419.171C403.91 418.373 401.436 419.171 401.436 419.171Z" fill="url(#paint72_linear_716_1153)"/>
<path d="M398.473 413.283C399.269 415.504 400.036 417.33 400.635 418.676C401.961 421.655 402.686 422.773 403.506 423.742C404.222 424.586 405.917 426.387 406.372 426.087C406.835 425.783 405.595 423.594 403.206 417.18C402.858 416.249 401.763 413.283 401.763 413.283L398.473 413.283Z" fill="url(#paint73_linear_716_1153)"/>
<path d="M341.384 320.497C340.816 326.079 340.27 334.742 341.086 345.255C342.149 358.954 344.888 367.622 348.323 382.227C350.422 391.153 353.25 404.29 355.81 420.72C356.404 421.06 358.151 421.954 360.401 421.62C361.661 421.433 362.603 420.933 363.159 420.572C369.875 400.05 367.892 387.332 364.65 379.409C363.269 376.031 361.594 373.367 360.699 368.175C359.514 361.306 360.979 357.466 363.068 341.555C364.557 330.215 364.299 328.462 363.308 326.761C359.348 319.961 347.236 320.094 341.384 320.497Z" fill="url(#paint74_linear_716_1153)"/>
<path d="M299.619 263.07C299.619 263.07 298.676 259.373 297.108 258.397C295.539 257.421 293.322 256.378 292.814 255.949C292.306 255.521 291.712 256.802 293.176 257.783C294.64 258.763 294.64 258.763 294.64 258.763C294.671 259.034 294.63 259.244 294.58 259.392C294.348 260.086 293.557 260.562 292.579 260.652C288.823 261.439 287.356 261.477 286.783 261.309C286.698 261.285 286.371 261.178 286.233 261.324C286.012 261.557 286.41 262.294 286.579 262.553C287.595 264.105 291.123 264.78 293.764 263.566C294.729 263.123 295.098 262.647 295.802 262.766C296.92 262.956 297.607 264.431 298.013 265.652L299.619 263.07Z" fill="url(#paint75_linear_716_1153)"/>
<path d="M364.504 322.884C368.618 344.131 372.656 355.291 375.712 361.603C376.466 363.159 378.98 368.182 381.357 375.382C383.461 381.755 384.338 386.443 384.787 388.507C386.206 395.02 389.711 404.529 399.144 417.002C399.262 417.071 400.871 417.981 402.408 417.17C403.186 416.759 403.574 416.105 403.728 415.8C402.495 403.875 401.079 393.854 399.851 386.12C399.593 384.498 398.457 377.401 396.677 368.025C395.98 364.356 394.959 358.98 393.736 353.457C392.213 346.581 389.878 337.226 386.279 326.016C379.02 324.971 371.762 323.928 364.504 322.884Z" fill="url(#paint76_linear_716_1153)"/>
<path d="M296.59 264.242C297.659 263.292 298.729 262.341 299.799 261.39C300.19 261.786 305.9 267.357 313.881 265.669C319.377 264.505 322.547 259.992 324.578 257.112C330.676 248.459 327.029 242.11 333.595 236.231C335.419 234.598 338.996 232.621 341.335 233.224C346.907 234.661 350.115 251.418 344.722 264.599C343.633 267.259 337.639 281.908 324.043 283.495C313.065 284.776 301.424 277.041 296.59 264.242Z" fill="white"/>
<path d="M360.997 238.841C358.663 236.684 354.199 234.198 351.96 228.418C351.286 226.679 348.899 220.514 352.421 215.799C354.511 212.999 358.394 211.099 361.817 211.772C364.742 212.347 365.199 214.384 370.169 218.483C372.103 220.079 375.213 222.644 378.673 224.07C384.602 226.513 388.165 224.214 394.117 224.476C401.429 224.799 409.924 228.88 414.017 234.814C421.281 245.347 410.758 256.032 418.715 268.372C421.322 272.414 422.607 271.508 428.782 279.334C434.965 287.17 438.057 291.087 437.507 295.889C436.743 302.552 429.566 308.917 422.808 309.35C416.205 309.773 412.009 304.579 408.648 306.851C406.255 308.467 407.623 311.612 405.082 315.392C401.807 320.265 395.369 321.236 394.33 321.392C384.68 322.848 371.668 311.532 366.142 298.126C356.177 273.951 373.682 250.567 360.997 238.841Z" fill="url(#paint77_linear_716_1153)"/>
<path opacity="0.3" d="M364.652 379.409C363.271 376.031 361.596 373.367 360.7 368.175C359.516 361.306 360.98 357.466 363.069 341.555C364.558 330.215 364.301 328.462 363.31 326.761C361.158 323.066 356.597 321.427 351.943 320.757C352.005 320.996 352.068 321.235 352.119 321.466C354.561 332.618 345.241 339.422 349.445 351.681C351.517 357.726 354.824 359.11 355.595 366.121C356.317 372.688 353.699 374.057 354.258 380.026C355.094 388.949 361.432 391.108 363.082 397.941C364.154 402.381 363.251 408.874 355.423 418.272C355.553 419.081 355.683 419.894 355.812 420.72C356.406 421.06 358.153 421.954 360.403 421.62C361.662 421.433 362.604 420.932 363.161 420.572C369.877 400.05 367.893 387.332 364.652 379.409Z" fill="url(#paint78_linear_716_1153)"/>
<path opacity="0.15" d="M340.087 249.268C330.038 257.205 331.156 272.428 324.979 273.2C323.092 273.436 323.195 271.99 318.695 270.526C312.112 268.386 309.02 270.548 304.389 268.922C302.471 268.249 299.977 266.81 297.52 263.416C297.21 263.692 296.899 263.967 296.59 264.242C301.424 277.042 313.065 284.776 324.043 283.495C337.639 281.908 343.633 267.259 344.722 264.599C347.252 258.414 347.889 251.442 347.276 245.635C344.957 246.312 342.437 247.412 340.087 249.268Z" fill="url(#paint79_linear_716_1153)"/>
<path d="M332.797 237.235C333.412 236.278 335.37 233.628 343.678 231.674C347.842 230.696 355.541 229.018 365.448 231.118C379.055 234 387.529 242.165 390.718 245.597C388.106 247.298 380.899 252.487 377.33 262.331C376.219 265.394 372.938 275.865 377.63 285.673C380.334 291.324 385.117 295.567 388.749 298.79C394.197 303.623 397.019 304.366 398.845 308.696C400.834 313.412 398.83 315.711 401.3 318.939C403.953 322.406 407.061 320.794 411.558 324.3C416.164 327.891 414.525 330.847 418.717 334.815C424.808 340.581 432.883 338.708 433.258 341.303C433.582 343.535 427.843 346.562 422.968 347.79C413.312 350.222 404.89 346.14 402.386 344.882C395.452 341.399 396.65 339.144 391.363 336.488C382.512 332.042 376.462 336.99 356.301 337.499C345.383 337.776 339.862 337.838 336.837 334.144C334.075 330.77 335.527 327.069 337.185 311.118C337.185 311.118 337.185 311.118 337.185 311.116C337.718 305.79 338.833 294.637 338.84 288.281C338.844 284.525 337.541 278.388 334.936 266.114C334.782 265.39 333.372 258.758 332.233 249.9C331.207 241.923 331.356 239.474 332.797 237.235Z" fill="white"/>
<g opacity="0.15">
<path d="M418.716 334.816C414.524 330.847 416.163 327.892 411.557 324.301C407.06 320.795 403.952 322.407 401.299 318.94C398.829 315.712 400.833 313.413 398.844 308.697C397.018 304.367 394.196 303.624 388.748 298.791C385.115 295.568 380.333 291.325 377.629 285.674C372.937 275.866 376.218 265.395 377.328 262.332C380.898 252.488 388.105 247.299 390.717 245.598C390.466 245.327 390.169 245.018 389.852 244.693C372.644 247.058 362.611 257.001 361.37 259.945C358.502 266.751 363.043 269.252 363.16 288.88C363.216 298.262 362.204 301.966 365.248 305.882C368.73 310.361 372.742 308.975 377.776 314.831C381.644 319.329 381.025 322.182 384.637 324.077C388.521 326.115 390.995 323.74 395.375 324.674C402.694 326.235 404.258 334.673 409.096 339.29C412.755 342.781 419.519 345.222 432.859 342.602C433.168 342.153 433.317 341.715 433.258 341.304C432.881 338.709 424.807 340.582 418.716 334.816Z" fill="url(#paint80_linear_716_1153)"/>
</g>
<path d="M344.189 261.033C344.189 261.033 363.041 236.419 373.756 233.725C371.238 232.671 368.479 231.759 365.451 231.118C356.938 229.314 350.063 230.298 345.653 231.232C344.643 234.475 340.677 248.198 344.189 261.033Z" fill="url(#paint81_linear_716_1153)"/>
<path d="M366.592 265.239C364.763 269.124 373.169 278.171 382.511 282.467C384.415 283.343 398.084 289.628 404.176 283.584C409.21 278.59 405.962 268.263 404.802 264.576C399.106 246.473 381.615 237.264 374.284 233.942C368.814 247.621 372.036 253.717 373.304 255.62C374.629 257.608 378.326 261.784 382.252 265.464C385.015 268.051 386.734 269.311 386.503 269.714C386.215 270.217 382.978 269.268 370.402 263.147C368.945 263.383 367.217 263.913 366.592 265.239Z" fill="white"/>
<path d="M359.861 220.481C359.861 220.481 360.729 227.419 363.29 229.009C365.85 230.597 369.99 232.674 370.446 233.237C370.902 233.8 354.583 235.555 346.496 231.474C349.161 230.918 349.886 230.714 349.886 230.714C350.609 230.509 351.958 230.129 353.311 229.358C354.232 228.834 355.716 227.81 357.077 225.876L357.047 222.034L359.861 220.481Z" fill="url(#paint82_linear_716_1153)"/>
<path d="M360.253 222.939C360.253 222.939 358.584 225.23 355.966 224.275C353.621 223.421 355.02 217.365 356.88 216.675C357.5 216.444 358.639 216.546 359.401 217.021C359.936 217.355 361.366 219.132 360.546 221.122C361.139 220.951 361.66 221.106 361.79 221.4C361.956 221.772 361.455 222.279 361.341 222.394C360.947 222.791 360.472 222.902 360.253 222.939Z" fill="url(#paint83_linear_716_1153)"/>
<path d="M335.491 242.535L357.75 244.62C358.217 244.664 358.609 244.989 358.738 245.44L367.044 274.445C367.264 275.212 366.646 275.962 365.85 275.892L343.409 273.912C342.937 273.87 342.54 273.54 342.412 273.084L334.289 243.974C334.074 243.206 334.697 242.461 335.491 242.535Z" fill="url(#paint84_linear_716_1153)"/>
<path d="M369.767 264.331C369.767 264.331 362.102 256.487 358.982 255.329C355.863 254.17 358.625 262.443 360.452 263.61C362.28 264.777 362.993 265.222 364.42 265.4C365.846 265.579 365.846 265.579 365.846 265.579L367.717 266.577C367.717 266.577 370.124 266.292 369.767 264.331Z" fill="url(#paint85_linear_716_1153)"/>
<path opacity="0.3" d="M350.306 267.623C349.467 263.038 352.054 259.483 349.575 255.185C347.025 250.764 342.547 251.51 339.332 247.869C338.308 246.709 337.389 245.067 336.938 242.671L335.491 242.535C334.697 242.461 334.074 243.206 334.289 243.974L342.412 273.084C342.54 273.54 342.937 273.87 343.409 273.912L354.805 274.917C351.905 272.315 350.707 269.81 350.306 267.623Z" fill="url(#paint86_linear_716_1153)"/>
<path d="M434.687 92.7795C436.056 127.291 409.063 156.085 374.08 157.102C338.743 158.128 308.702 130.476 307.308 95.3287C305.914 60.1814 333.714 31.3715 369.077 30.9834C404.085 30.5993 433.318 58.2679 434.687 92.7795Z" fill="url(#paint87_linear_716_1153)"/>
<path d="M433.373 92.8054C434.713 126.597 408.28 154.786 374.029 155.774C339.439 156.773 310.039 129.702 308.674 95.3009C307.309 60.8998 334.517 32.696 369.131 32.3097C403.406 31.9269 432.032 59.0133 433.373 92.8054Z" fill="url(#paint88_linear_716_1153)"/>
<path opacity="0.5" d="M427.01 92.9332C428.212 123.246 404.487 148.509 373.775 149.368C342.789 150.234 316.477 125.972 315.255 95.1696C314.033 64.3677 338.38 39.0916 369.385 38.7171C400.117 38.3459 425.807 62.6205 427.01 92.9332Z" fill="white"/>
<path opacity="0.5" d="M379.564 137.313C375.919 130.528 376.647 127.14 373.002 101.492C367.578 63.3271 363.995 56.9453 361.094 52.9493C358.131 48.8684 352.877 43.1422 343.251 38.2305C321.955 48.3149 307.677 70.1708 308.674 95.3014C310.039 129.703 339.439 156.773 374.029 155.775C380.71 155.582 387.092 154.355 393.026 152.256C387.609 148.368 382.878 143.483 379.564 137.313Z" fill="white"/>
<path d="M368.574 56.3678L354.074 61.5889C358.518 66.6283 361.353 72.7078 362.768 79.2498L375.201 74.773C380.263 72.9506 382.913 67.3184 381.09 62.2569C379.268 57.1953 373.635 54.5452 368.574 56.3678Z" fill="white"/>
<path opacity="0.49" d="M369.85 68.5342C368.297 70.8217 365.413 71.212 363.348 70.8756C358.627 69.7666 352.553 68.4971 349.348 71.5955C345.53 75.3381 341.233 77.751 335.859 77.7692C335.924 78.0012 335.994 78.2328 336.077 78.4631C337.9 83.5246 343.532 86.1746 348.593 84.3521L375.197 74.7728C380.259 72.9503 382.909 67.3181 381.086 62.2566C380.748 61.3179 380.279 60.4627 379.707 59.7031C375.86 61.7597 372.501 64.6691 369.85 68.5342Z" fill="#D8DEE8"/>
<path d="M354.073 61.5889L341.969 65.9472C336.907 67.7696 334.257 73.4018 336.08 78.4633C337.902 83.5248 343.534 86.1748 348.596 84.3524L362.767 79.2498C361.351 72.7079 358.517 66.6283 354.073 61.5889Z" fill="url(#paint89_linear_716_1153)"/>
<path opacity="0.3" d="M359.667 70.0925C355.804 69.4062 351.765 69.2629 349.352 71.5956C345.534 75.3381 341.236 77.7511 335.863 77.7692C335.893 77.8762 335.924 77.9831 335.957 78.0899C335.997 78.2145 336.037 78.3391 336.081 78.4631C337.904 83.5246 343.536 86.1746 348.597 84.3522L362.768 79.2496C362.079 76.0649 361.051 72.9913 359.667 70.0925Z" fill="url(#paint90_linear_716_1153)"/>
<path d="M404.987 86.5917L389.765 84.1875C391.234 90.7439 390.792 97.4372 388.883 103.853L401.935 105.914C407.249 106.753 412.283 103.092 413.123 97.7787C413.962 92.4651 410.301 87.4309 404.987 86.5917Z" fill="white"/>
<path opacity="0.49" d="M400.252 97.8726C397.789 99.1301 395.074 98.0838 393.425 96.7944C389.822 93.55 385.109 89.513 380.808 90.6858C375.659 92.1281 370.731 92.1744 366.013 89.6035C365.958 89.8381 365.908 90.0749 365.87 90.3165C365.031 95.6303 368.691 100.664 374.005 101.504L401.935 105.915C407.249 106.754 412.283 103.093 413.122 97.7793C413.278 96.7938 413.278 95.8182 413.142 94.877C408.78 94.8276 404.436 95.7609 400.252 97.8726Z" fill="#D8DEE8"/>
<path d="M389.764 84.1883L377.057 82.1813C371.743 81.3421 366.709 85.003 365.87 90.3168C365.031 95.6305 368.691 100.665 374.005 101.504L388.882 103.853C390.791 97.438 391.233 90.7447 389.764 84.1883Z" fill="url(#paint91_linear_716_1153)"/>
<path opacity="0.3" d="M390.573 94.3343C387.517 91.8729 384.046 89.8029 380.808 90.6858C375.659 92.1281 370.731 92.1744 366.013 89.6035C365.987 89.7117 365.964 89.8204 365.941 89.9299C365.915 90.0581 365.89 90.1864 365.87 90.3165C365.031 95.6303 368.691 100.664 374.005 101.504L388.882 103.853C389.812 100.73 390.39 97.5412 390.573 94.3343Z" fill="url(#paint92_linear_716_1153)"/>
<path d="M375.573 118.399C376.964 126.465 370.026 133.292 361.827 134.065C353.483 134.851 345.444 128.748 344.007 120.42C342.571 112.093 348.652 103.42 357.042 102.898C365.286 102.385 374.182 110.333 375.573 118.399Z" fill="url(#paint93_linear_716_1153)"/>
<path d="M376.024 116.387C377.415 124.452 372.001 131.608 363.802 132.38C355.457 133.166 347.418 127.063 345.982 118.736C344.546 110.408 350.294 103.227 358.684 102.705C366.928 102.192 374.633 108.321 376.024 116.387Z" fill="white"/>
<path opacity="0.3" d="M362.349 131.132C358.858 131.132 355.391 129.85 352.587 127.521C349.762 125.174 347.877 121.975 347.28 118.512C346.653 114.879 347.498 111.372 349.66 108.638C351.832 105.89 355.066 104.25 358.767 104.02C359.059 104.001 359.357 103.992 359.65 103.992C366.884 103.992 373.507 109.535 374.727 116.611C375.34 120.163 374.531 123.618 372.448 126.34C370.373 129.053 367.258 130.733 363.679 131.07C363.24 131.111 362.792 131.132 362.349 131.132Z" fill="#D8DEE8"/>
<path d="M359.109 105.174C358.354 105.223 357.844 105.867 357.973 106.612L361.708 128.268C361.836 129.013 362.551 129.562 363.303 129.493C364.054 129.425 364.558 128.767 364.43 128.024L360.706 106.431C360.578 105.688 359.863 105.125 359.109 105.174Z" fill="#D8DEE8"/>
<path opacity="0.3" d="M364.432 128.024L360.708 106.431C360.58 105.688 359.866 105.125 359.112 105.174C358.852 105.191 358.623 105.279 358.438 105.416C358.481 105.409 358.526 105.403 358.571 105.4C359.326 105.352 360.04 105.914 360.168 106.657L363.892 128.251C363.978 128.749 363.779 129.209 363.411 129.478C364.103 129.36 364.554 128.731 364.432 128.024Z" fill="#D8DEE8"/>
<defs>
<linearGradient id="paint0_linear_716_1153" x1="70.1599" y1="95.8746" x2="146.473" y2="194.83" gradientUnits="userSpaceOnUse">
<stop stop-color="#AA80F9"/>
<stop offset="0.9964" stop-color="#6165D7"/>
</linearGradient>
<linearGradient id="paint1_linear_716_1153" x1="3.66787" y1="259.117" x2="189.806" y2="259.117" gradientUnits="userSpaceOnUse">
<stop stop-color="#FF9085"/>
<stop offset="1" stop-color="#FB6FBB"/>
</linearGradient>
<linearGradient id="paint2_linear_716_1153" x1="170.246" y1="170.771" x2="348.003" y2="170.771" gradientUnits="userSpaceOnUse">
<stop offset="0.0036" stop-color="#E38DDD"/>
<stop offset="1" stop-color="#9571F6"/>
</linearGradient>
<linearGradient id="paint3_linear_716_1153" x1="160.934" y1="304.231" x2="324.059" y2="304.231" gradientUnits="userSpaceOnUse">
<stop offset="0.0036" stop-color="#E38DDD"/>
<stop offset="1" stop-color="#9571F6"/>
</linearGradient>
<linearGradient id="paint4_linear_716_1153" x1="153.066" y1="370.916" x2="315.404" y2="370.916" gradientUnits="userSpaceOnUse">
<stop offset="0.0036" stop-color="#E38DDD"/>
<stop offset="1" stop-color="#9571F6"/>
</linearGradient>
<linearGradient id="paint5_linear_716_1153" x1="262.627" y1="233.018" x2="326.721" y2="240.01" gradientUnits="userSpaceOnUse">
<stop stop-color="#444B8C"/>
<stop offset="0.9964" stop-color="#26264F"/>
</linearGradient>
<linearGradient id="paint6_linear_716_1153" x1="206.153" y1="71.4545" x2="364.64" y2="611.012" gradientUnits="userSpaceOnUse">
<stop stop-color="#44548C"/>
<stop offset="0.9964" stop-color="#26264F"/>
</linearGradient>
<linearGradient id="paint7_linear_716_1153" x1="145.52" y1="247.425" x2="359.321" y2="247.425" gradientUnits="userSpaceOnUse">
<stop offset="0.0036" stop-color="#5482B8"/>
<stop offset="1" stop-color="#3F719F"/>
</linearGradient>
<linearGradient id="paint8_linear_716_1153" x1="265.541" y1="58.1644" x2="451.806" y2="562.633" gradientUnits="userSpaceOnUse">
<stop stop-color="#FFC444"/>
<stop offset="0.9964" stop-color="#F36F56"/>
</linearGradient>
<linearGradient id="paint9_linear_716_1153" x1="201.287" y1="105.921" x2="201.287" y2="117.013" gradientUnits="userSpaceOnUse">
<stop stop-color="#219FD9"/>
<stop offset="1" stop-color="#219FD9"/>
</linearGradient>
<linearGradient id="paint10_linear_716_1153" x1="212.219" y1="105.733" x2="212.219" y2="117.178" gradientUnits="userSpaceOnUse">
<stop stop-color="#219FD9"/>
<stop offset="1" stop-color="#219FD9"/>
</linearGradient>
<linearGradient id="paint11_linear_716_1153" x1="222.44" y1="105.878" x2="222.44" y2="117.054" gradientUnits="userSpaceOnUse">
<stop stop-color="#219FD9"/>
<stop offset="1" stop-color="#219FD9"/>
</linearGradient>
<linearGradient id="paint12_linear_716_1153" x1="232.288" y1="105.867" x2="232.288" y2="117.065" gradientUnits="userSpaceOnUse">
<stop stop-color="#219FD9"/>
<stop offset="1" stop-color="#219FD9"/>
</linearGradient>
<linearGradient id="paint13_linear_716_1153" x1="240.959" y1="105.797" x2="240.959" y2="117.093" gradientUnits="userSpaceOnUse">
<stop stop-color="#219FD9"/>
<stop offset="1" stop-color="#219FD9"/>
</linearGradient>
<linearGradient id="paint14_linear_716_1153" x1="250.909" y1="105.819" x2="250.909" y2="117.104" gradientUnits="userSpaceOnUse">
<stop stop-color="#219FD9"/>
<stop offset="1" stop-color="#219FD9"/>
</linearGradient>
<linearGradient id="paint15_linear_716_1153" x1="250.006" y1="222.938" x2="250.006" y2="234.364" gradientUnits="userSpaceOnUse">
<stop stop-color="#219FD9"/>
<stop offset="1" stop-color="#219FD9"/>
</linearGradient>
<linearGradient id="paint16_linear_716_1153" x1="195.377" y1="172.953" x2="195.377" y2="216.853" gradientUnits="userSpaceOnUse">
<stop stop-color="#219FD9"/>
<stop offset="1" stop-color="#219FD9"/>
</linearGradient>
<linearGradient id="paint17_linear_716_1153" x1="215.376" y1="149.47" x2="215.376" y2="217.58" gradientUnits="userSpaceOnUse">
<stop stop-color="#219FD9"/>
<stop offset="1" stop-color="#219FD9"/>
</linearGradient>
<linearGradient id="paint18_linear_716_1153" x1="232.277" y1="186.981" x2="232.277" y2="218.334" gradientUnits="userSpaceOnUse">
<stop stop-color="#219FD9"/>
<stop offset="1" stop-color="#219FD9"/>
</linearGradient>
<linearGradient id="paint19_linear_716_1153" x1="252.807" y1="163.684" x2="252.807" y2="219.083" gradientUnits="userSpaceOnUse">
<stop stop-color="#219FD9"/>
<stop offset="1" stop-color="#219FD9"/>
</linearGradient>
<linearGradient id="paint20_linear_716_1153" x1="271.421" y1="174.688" x2="271.421" y2="219.842" gradientUnits="userSpaceOnUse">
<stop stop-color="#219FD9"/>
<stop offset="1" stop-color="#219FD9"/>
</linearGradient>
<linearGradient id="paint21_linear_716_1153" x1="290.606" y1="188.594" x2="290.606" y2="220.629" gradientUnits="userSpaceOnUse">
<stop stop-color="#219FD9"/>
<stop offset="1" stop-color="#219FD9"/>
</linearGradient>
<linearGradient id="paint22_linear_716_1153" x1="312.889" y1="150.832" x2="312.889" y2="221.41" gradientUnits="userSpaceOnUse">
<stop stop-color="#219FD9"/>
<stop offset="1" stop-color="#219FD9"/>
</linearGradient>
<linearGradient id="paint23_linear_716_1153" x1="312.416" y1="108.748" x2="312.416" y2="114.613" gradientUnits="userSpaceOnUse">
<stop stop-color="#219FD9"/>
<stop offset="1" stop-color="#219FD9"/>
</linearGradient>
<linearGradient id="paint24_linear_716_1153" x1="207.996" y1="213.072" x2="358.313" y2="417.285" gradientUnits="userSpaceOnUse">
<stop offset="0.0036" stop-color="#E38DDD"/>
<stop offset="1" stop-color="#9571F6"/>
</linearGradient>
<linearGradient id="paint25_linear_716_1153" x1="215.761" y1="207.358" x2="366.078" y2="411.571" gradientUnits="userSpaceOnUse">
<stop offset="0.0036" stop-color="#E38DDD"/>
<stop offset="1" stop-color="#9571F6"/>
</linearGradient>
<linearGradient id="paint26_linear_716_1153" x1="225.533" y1="200.165" x2="375.849" y2="404.377" gradientUnits="userSpaceOnUse">
<stop offset="0.0036" stop-color="#E38DDD"/>
<stop offset="1" stop-color="#9571F6"/>
</linearGradient>
<linearGradient id="paint27_linear_716_1153" x1="190.983" y1="281.795" x2="273.51" y2="398.007" gradientUnits="userSpaceOnUse">
<stop offset="0.0036" stop-color="#E38DDD"/>
<stop offset="1" stop-color="#9571F6"/>
</linearGradient>
<linearGradient id="paint28_linear_716_1153" x1="196.384" y1="277.959" x2="278.91" y2="394.17" gradientUnits="userSpaceOnUse">
<stop offset="0.0036" stop-color="#E38DDD"/>
<stop offset="1" stop-color="#9571F6"/>
</linearGradient>
<linearGradient id="paint29_linear_716_1153" x1="204.544" y1="272.165" x2="287.071" y2="388.377" gradientUnits="userSpaceOnUse">
<stop offset="0.0036" stop-color="#E38DDD"/>
<stop offset="1" stop-color="#9571F6"/>
</linearGradient>
<linearGradient id="paint30_linear_716_1153" x1="214.324" y1="265.22" x2="296.851" y2="381.431" gradientUnits="userSpaceOnUse">
<stop offset="0.0036" stop-color="#E38DDD"/>
<stop offset="1" stop-color="#9571F6"/>
</linearGradient>
<linearGradient id="paint31_linear_716_1153" x1="165.581" y1="244.291" x2="315.898" y2="448.503" gradientUnits="userSpaceOnUse">
<stop offset="0.0036" stop-color="#E38DDD"/>
<stop offset="1" stop-color="#9571F6"/>
</linearGradient>
<linearGradient id="paint32_linear_716_1153" x1="150.927" y1="255.078" x2="301.244" y2="459.291" gradientUnits="userSpaceOnUse">
<stop offset="0.0036" stop-color="#E38DDD"/>
<stop offset="1" stop-color="#9571F6"/>
</linearGradient>
<linearGradient id="paint33_linear_716_1153" x1="155.546" y1="306.96" x2="238.073" y2="423.172" gradientUnits="userSpaceOnUse">
<stop offset="0.0036" stop-color="#E38DDD"/>
<stop offset="1" stop-color="#9571F6"/>
</linearGradient>
<linearGradient id="paint34_linear_716_1153" x1="141.048" y1="317.256" x2="223.575" y2="433.468" gradientUnits="userSpaceOnUse">
<stop offset="0.0036" stop-color="#E38DDD"/>
<stop offset="1" stop-color="#9571F6"/>
</linearGradient>
<linearGradient id="paint35_linear_716_1153" x1="23.0743" y1="79.4212" x2="131.676" y2="79.4212" gradientUnits="userSpaceOnUse">
<stop stop-color="#311944"/>
<stop offset="1" stop-color="#893976"/>
</linearGradient>
<linearGradient id="paint36_linear_716_1153" x1="25.5431" y1="46.9801" x2="133.651" y2="46.9801" gradientUnits="userSpaceOnUse">
<stop stop-color="#FF9085"/>
<stop offset="1" stop-color="#FB6FBB"/>
</linearGradient>
<linearGradient id="paint37_linear_716_1153" x1="237.835" y1="178.971" x2="220.682" y2="226.818" gradientUnits="userSpaceOnUse">
<stop stop-color="#FFC444"/>
<stop offset="0.9964" stop-color="#F36F56"/>
</linearGradient>
<linearGradient id="paint38_linear_716_1153" x1="153.855" y1="241.487" x2="228.461" y2="241.487" gradientUnits="userSpaceOnUse">
<stop stop-color="#AA80F9"/>
<stop offset="0.9964" stop-color="#6165D7"/>
</linearGradient>
<linearGradient id="paint39_linear_716_1153" x1="140.665" y1="425.935" x2="127.73" y2="427.1" gradientUnits="userSpaceOnUse">
<stop stop-color="#444B8C"/>
<stop offset="0.9964" stop-color="#26264F"/>
</linearGradient>
<linearGradient id="paint40_linear_716_1153" x1="133.247" y1="426.463" x2="126.744" y2="415.093" gradientUnits="userSpaceOnUse">
<stop stop-color="#FFC444"/>
<stop offset="0.9964" stop-color="#F36F56"/>
</linearGradient>
<linearGradient id="paint41_linear_716_1153" x1="185.434" y1="423.719" x2="171.953" y2="426.662" gradientUnits="userSpaceOnUse">
<stop stop-color="#444B8C"/>
<stop offset="0.9964" stop-color="#26264F"/>
</linearGradient>
<linearGradient id="paint42_linear_716_1153" x1="177.089" y1="425.402" x2="169.583" y2="414.332" gradientUnits="userSpaceOnUse">
<stop stop-color="#FFC444"/>
<stop offset="0.9964" stop-color="#F36F56"/>
</linearGradient>
<linearGradient id="paint43_linear_716_1153" x1="182.104" y1="401.049" x2="149.775" y2="316.243" gradientUnits="userSpaceOnUse">
<stop stop-color="#AA80F9"/>
<stop offset="0.9964" stop-color="#6165D7"/>
</linearGradient>
<linearGradient id="paint44_linear_716_1153" x1="176.27" y1="403.273" x2="143.941" y2="318.466" gradientUnits="userSpaceOnUse">
<stop stop-color="#AA80F9"/>
<stop offset="0.9964" stop-color="#6165D7"/>
</linearGradient>
<linearGradient id="paint45_linear_716_1153" x1="161.392" y1="405.646" x2="118.919" y2="325.436" gradientUnits="userSpaceOnUse">
<stop stop-color="#AA80F9"/>
<stop offset="0.9964" stop-color="#6165D7"/>
</linearGradient>
<linearGradient id="paint46_linear_716_1153" x1="157.564" y1="260.595" x2="101.176" y2="334.317" gradientUnits="userSpaceOnUse">
<stop stop-color="#AA80F9"/>
<stop offset="0.9964" stop-color="#6165D7"/>
</linearGradient>
<linearGradient id="paint47_linear_716_1153" x1="128.961" y1="234.956" x2="129.327" y2="219.572" gradientUnits="userSpaceOnUse">
<stop stop-color="#FFC444"/>
<stop offset="0.9964" stop-color="#F36F56"/>
</linearGradient>
<linearGradient id="paint48_linear_716_1153" x1="132.023" y1="216.809" x2="129.502" y2="256.787" gradientUnits="userSpaceOnUse">
<stop stop-color="#FFC444"/>
<stop offset="0.9964" stop-color="#F36F56"/>
</linearGradient>
<linearGradient id="paint49_linear_716_1153" x1="128.392" y1="224.236" x2="128.824" y2="228.996" gradientUnits="userSpaceOnUse">
<stop stop-color="#FFC444"/>
<stop offset="0.9964" stop-color="#F36F56"/>
</linearGradient>
<linearGradient id="paint50_linear_716_1153" x1="87.278" y1="324.105" x2="93.6203" y2="351.018" gradientUnits="userSpaceOnUse">
<stop stop-color="#FFC444"/>
<stop offset="0.9964" stop-color="#F36F56"/>
</linearGradient>
<linearGradient id="paint51_linear_716_1153" x1="84.0696" y1="402.296" x2="81.1377" y2="455.07" gradientUnits="userSpaceOnUse">
<stop stop-color="#444B8C"/>
<stop offset="0.9964" stop-color="#26264F"/>
</linearGradient>
<linearGradient id="paint52_linear_716_1153" x1="80.9919" y1="419.219" x2="76.6015" y2="419.219" gradientUnits="userSpaceOnUse">
<stop stop-color="#FFC444"/>
<stop offset="0.9964" stop-color="#F36F56"/>
</linearGradient>
<linearGradient id="paint53_linear_716_1153" x1="31.0005" y1="399.348" x2="28.0686" y2="452.122" gradientUnits="userSpaceOnUse">
<stop stop-color="#444B8C"/>
<stop offset="0.9964" stop-color="#26264F"/>
</linearGradient>
<linearGradient id="paint54_linear_716_1153" x1="36.4114" y1="416.512" x2="27.6797" y2="416.512" gradientUnits="userSpaceOnUse">
<stop stop-color="#FFC444"/>
<stop offset="0.9964" stop-color="#F36F56"/>
</linearGradient>
<linearGradient id="paint55_linear_716_1153" x1="83.3508" y1="413.931" x2="84.8168" y2="357.248" gradientUnits="userSpaceOnUse">
<stop stop-color="#311944"/>
<stop offset="1" stop-color="#893976"/>
</linearGradient>
<linearGradient id="paint56_linear_716_1153" x1="50.757" y1="413.089" x2="52.2231" y2="356.405" gradientUnits="userSpaceOnUse">
<stop stop-color="#311944"/>
<stop offset="1" stop-color="#893976"/>
</linearGradient>
<linearGradient id="paint57_linear_716_1153" x1="103.633" y1="243.282" x2="111.455" y2="303.559" gradientUnits="userSpaceOnUse">
<stop offset="0.0036" stop-color="#E38DDD"/>
<stop offset="1" stop-color="#9571F6"/>
</linearGradient>
<linearGradient id="paint58_linear_716_1153" x1="103.222" y1="243.336" x2="111.044" y2="303.612" gradientUnits="userSpaceOnUse">
<stop stop-color="#AA80F9"/>
<stop offset="0.9964" stop-color="#6165D7"/>
</linearGradient>
<linearGradient id="paint59_linear_716_1153" x1="74.3869" y1="267.662" x2="60.3443" y2="374.508" gradientUnits="userSpaceOnUse">
<stop stop-color="#AA80F9"/>
<stop offset="0.9964" stop-color="#6165D7"/>
</linearGradient>
<linearGradient id="paint60_linear_716_1153" x1="62.4489" y1="266.031" x2="48.3384" y2="373.394" gradientUnits="userSpaceOnUse">
<stop offset="0.0036" stop-color="#E38DDD"/>
<stop offset="1" stop-color="#9571F6"/>
</linearGradient>
<linearGradient id="paint61_linear_716_1153" x1="67.493" y1="246.908" x2="88.4619" y2="228.228" gradientUnits="userSpaceOnUse">
<stop stop-color="#FFC444"/>
<stop offset="0.9964" stop-color="#F36F56"/>
</linearGradient>
<linearGradient id="paint62_linear_716_1153" x1="79.2193" y1="229.791" x2="82.3295" y2="256.709" gradientUnits="userSpaceOnUse">
<stop stop-color="#FFC444"/>
<stop offset="0.9964" stop-color="#F36F56"/>
</linearGradient>
<linearGradient id="paint63_linear_716_1153" x1="91.6919" y1="284.898" x2="86.4532" y2="287.833" gradientUnits="userSpaceOnUse">
<stop stop-color="#FFC444"/>
<stop offset="0.9964" stop-color="#F36F56"/>
</linearGradient>
<linearGradient id="paint64_linear_716_1153" x1="102.163" y1="269.293" x2="108.511" y2="275.302" gradientUnits="userSpaceOnUse">
<stop stop-color="#444B8C"/>
<stop offset="0.9964" stop-color="#26264F"/>
</linearGradient>
<linearGradient id="paint65_linear_716_1153" x1="88.8282" y1="277.542" x2="114.253" y2="273.572" gradientUnits="userSpaceOnUse">
<stop stop-color="#311944"/>
<stop offset="1" stop-color="#893976"/>
</linearGradient>
<linearGradient id="paint66_linear_716_1153" x1="101.448" y1="288.267" x2="108.11" y2="259.965" gradientUnits="userSpaceOnUse">
<stop stop-color="#311944"/>
<stop offset="1" stop-color="#893976"/>
</linearGradient>
<linearGradient id="paint67_linear_716_1153" x1="62.9922" y1="276.243" x2="21.3509" y2="346.182" gradientUnits="userSpaceOnUse">
<stop stop-color="#AA80F9"/>
<stop offset="0.9964" stop-color="#6165D7"/>
</linearGradient>
<linearGradient id="paint68_linear_716_1153" x1="62.9769" y1="276.234" x2="21.3357" y2="346.173" gradientUnits="userSpaceOnUse">
<stop offset="0.0036" stop-color="#E38DDD"/>
<stop offset="1" stop-color="#9571F6"/>
</linearGradient>
<linearGradient id="paint69_linear_716_1153" x1="101.414" y1="267.739" x2="92.5185" y2="283.997" gradientUnits="userSpaceOnUse">
<stop stop-color="#FFC444"/>
<stop offset="0.9964" stop-color="#F36F56"/>
</linearGradient>
<linearGradient id="paint70_linear_716_1153" x1="354.836" y1="406.684" x2="357.52" y2="455.008" gradientUnits="userSpaceOnUse">
<stop stop-color="#444B8C"/>
<stop offset="0.9964" stop-color="#26264F"/>
</linearGradient>
<linearGradient id="paint71_linear_716_1153" x1="359.907" y1="430.498" x2="358.481" y2="365.253" gradientUnits="userSpaceOnUse">
<stop stop-color="#FFC444"/>
<stop offset="0.9964" stop-color="#F36F56"/>
</linearGradient>
<linearGradient id="paint72_linear_716_1153" x1="403.427" y1="403.985" x2="406.112" y2="452.307" gradientUnits="userSpaceOnUse">
<stop stop-color="#444B8C"/>
<stop offset="0.9964" stop-color="#26264F"/>
</linearGradient>
<linearGradient id="paint73_linear_716_1153" x1="402.689" y1="429.563" x2="401.263" y2="364.319" gradientUnits="userSpaceOnUse">
<stop stop-color="#FFC444"/>
<stop offset="0.9964" stop-color="#F36F56"/>
</linearGradient>
<linearGradient id="paint74_linear_716_1153" x1="339.19" y1="388.092" x2="366.286" y2="351.726" gradientUnits="userSpaceOnUse">
<stop stop-color="#444B8C"/>
<stop offset="0.9964" stop-color="#26264F"/>
</linearGradient>
<linearGradient id="paint75_linear_716_1153" x1="291.9" y1="259.611" x2="313.223" y2="316.725" gradientUnits="userSpaceOnUse">
<stop stop-color="#FFC444"/>
<stop offset="0.9964" stop-color="#F36F56"/>
</linearGradient>
<linearGradient id="paint76_linear_716_1153" x1="359.321" y1="392.605" x2="422.783" y2="333.421" gradientUnits="userSpaceOnUse">
<stop stop-color="#444B8C"/>
<stop offset="0.9964" stop-color="#26264F"/>
</linearGradient>
<linearGradient id="paint77_linear_716_1153" x1="403.656" y1="286.648" x2="384.864" y2="260.026" gradientUnits="userSpaceOnUse">
<stop stop-color="#444B8C"/>
<stop offset="0.9964" stop-color="#26264F"/>
</linearGradient>
<linearGradient id="paint78_linear_716_1153" x1="342.648" y1="390.667" x2="369.744" y2="354.301" gradientUnits="userSpaceOnUse">
<stop stop-color="#444B8C"/>
<stop offset="0.9964" stop-color="#26264F"/>
</linearGradient>
<linearGradient id="paint79_linear_716_1153" x1="296.59" y1="264.634" x2="347.493" y2="264.634" gradientUnits="userSpaceOnUse">
<stop stop-color="#AA80F9"/>
<stop offset="0.9964" stop-color="#6165D7"/>
</linearGradient>
<linearGradient id="paint80_linear_716_1153" x1="383.376" y1="230.256" x2="398.887" y2="325.111" gradientUnits="userSpaceOnUse">
<stop stop-color="#AA80F9"/>
<stop offset="0.9964" stop-color="#6165D7"/>
</linearGradient>
<linearGradient id="paint81_linear_716_1153" x1="357.34" y1="238.027" x2="383.31" y2="396.847" gradientUnits="userSpaceOnUse">
<stop stop-color="#AA80F9"/>
<stop offset="0.9964" stop-color="#6165D7"/>
</linearGradient>
<linearGradient id="paint82_linear_716_1153" x1="357.595" y1="233.653" x2="374.173" y2="209.587" gradientUnits="userSpaceOnUse">
<stop stop-color="#FFC444"/>
<stop offset="0.9964" stop-color="#F36F56"/>
</linearGradient>
<linearGradient id="paint83_linear_716_1153" x1="356.095" y1="221.446" x2="382.3" y2="205.669" gradientUnits="userSpaceOnUse">
<stop stop-color="#FFC444"/>
<stop offset="0.9964" stop-color="#F36F56"/>
</linearGradient>
<linearGradient id="paint84_linear_716_1153" x1="343.79" y1="319.586" x2="346.985" y2="291.542" gradientUnits="userSpaceOnUse">
<stop stop-color="#FF9085"/>
<stop offset="1" stop-color="#FB6FBB"/>
</linearGradient>
<linearGradient id="paint85_linear_716_1153" x1="363.264" y1="258.233" x2="374.562" y2="327.326" gradientUnits="userSpaceOnUse">
<stop stop-color="#FFC444"/>
<stop offset="0.9964" stop-color="#F36F56"/>
</linearGradient>
<linearGradient id="paint86_linear_716_1153" x1="337.731" y1="318.896" x2="340.926" y2="290.851" gradientUnits="userSpaceOnUse">
<stop stop-color="#FF9085"/>
<stop offset="1" stop-color="#FB6FBB"/>
</linearGradient>
<linearGradient id="paint87_linear_716_1153" x1="381.54" y1="83.1689" x2="389.349" y2="75.118" gradientUnits="userSpaceOnUse">
<stop stop-color="#FF9085"/>
<stop offset="1" stop-color="#FB6FBB"/>
</linearGradient>
<linearGradient id="paint88_linear_716_1153" x1="354.647" y1="34.1396" x2="387.39" y2="153.965" gradientUnits="userSpaceOnUse">
<stop stop-color="#FF9085"/>
<stop offset="1" stop-color="#FB6FBB"/>
</linearGradient>
<linearGradient id="paint89_linear_716_1153" x1="327.82" y1="63.828" x2="380.886" y2="87.8734" gradientUnits="userSpaceOnUse">
<stop stop-color="#AA80F9"/>
<stop offset="0.9964" stop-color="#6165D7"/>
</linearGradient>
<linearGradient id="paint90_linear_716_1153" x1="337.315" y1="81.8889" x2="361.048" y2="73.3432" gradientUnits="userSpaceOnUse">
<stop stop-color="#FF9085"/>
<stop offset="1" stop-color="#FB6FBB"/>
</linearGradient>
<linearGradient id="paint91_linear_716_1153" x1="365.676" y1="73.5127" x2="400.613" y2="120.135" gradientUnits="userSpaceOnUse">
<stop stop-color="#FF9085"/>
<stop offset="1" stop-color="#FB6FBB"/>
</linearGradient>
<linearGradient id="paint92_linear_716_1153" x1="365.302" y1="93.9131" x2="390.218" y2="97.848" gradientUnits="userSpaceOnUse">
<stop stop-color="#FF9085"/>
<stop offset="1" stop-color="#FB6FBB"/>
</linearGradient>
<linearGradient id="paint93_linear_716_1153" x1="343.797" y1="118.504" x2="375.751" y2="118.504" gradientUnits="userSpaceOnUse">
<stop stop-color="#D8DEE8"/>
<stop offset="0.9964" stop-color="#97A6B7"/>
</linearGradient>
</defs>
</svg>
