<svg width="15" height="25" viewBox="0 0 15 25" fill="none" xmlns="http://www.w3.org/2000/svg">
<path d="M13.5256 20.7669L10.242 13.4633C9.91945 12.7485 9.65558 11.5274 9.65558 10.7493C9.65558 9.97115 10.1569 9.33452 10.7697 9.33452C11.3824 9.33452 11.8838 8.85611 11.8838 8.27347C11.8838 7.69082 11.2153 7.21241 10.3983 7.21241H3.71368C2.89667 7.21241 2.22821 7.68896 2.22821 8.27347C2.22821 8.85798 2.72956 9.33452 3.34232 9.33452C3.95507 9.33452 4.45642 9.97115 4.45642 10.7493C4.45642 11.5274 4.19255 12.7485 3.87005 13.4642L0.586372 20.7688C0.263867 21.4836 0 22.3883 0 22.7764C0 23.1645 0.334232 23.803 0.742737 24.1911C1.15124 24.5792 2.15394 24.8985 2.97095 24.8985H11.1411C11.9571 24.8985 12.9588 24.582 13.3693 24.1911C13.7797 23.8002 14.112 23.1654 14.112 22.7764C14.112 22.3873 13.8481 21.4826 13.5256 20.7688V20.7669ZM8.1144 5.11823C8.1144 5.38557 8.22591 5.64196 8.4244 5.83099C8.62289 6.02003 8.8921 6.12623 9.1728 6.12623C9.45351 6.12623 9.72271 6.02003 9.9212 5.83099C10.1197 5.64196 10.2312 5.38557 10.2312 5.11823C10.2311 4.85089 10.1194 4.59455 9.92086 4.4056C9.72228 4.21665 9.45302 4.11057 9.17231 4.11069C8.89161 4.11082 8.62245 4.21714 8.42405 4.40626C8.22566 4.59538 8.11427 4.85089 8.1144 5.11823ZM5.26561 5.27366C5.39521 5.27366 5.5195 5.22463 5.61114 5.13736C5.70277 5.05009 5.75426 4.93172 5.75426 4.80829C5.75426 4.68487 5.70277 4.5665 5.61114 4.47922C5.5195 4.39195 5.39521 4.34292 5.26561 4.34292C5.13602 4.34292 5.01173 4.39195 4.92009 4.47922C4.82845 4.5665 4.77697 4.68487 4.77697 4.80829C4.77697 4.93172 4.82845 5.05009 4.92009 5.13736C5.01173 5.22463 5.13602 5.27366 5.26561 5.27366ZM7.13907 2.94679C7.34865 2.95671 7.55816 2.92594 7.75486 2.85635C7.95157 2.78677 8.13136 2.67982 8.28333 2.54202C8.4353 2.40421 8.55626 2.23841 8.63887 2.05471C8.72147 1.871 8.76401 1.67322 8.76387 1.47337C8.76374 1.27353 8.72095 1.0758 8.63809 0.892189C8.55524 0.708582 8.43406 0.542934 8.28191 0.40531C8.12976 0.267685 7.94982 0.160956 7.75303 0.0916092C7.55623 0.022262 7.34668 -0.00825636 7.13712 0.00190839C6.7438 0.025232 6.37463 0.190537 6.10487 0.464125C5.8351 0.737713 5.68505 1.09899 5.6853 1.4743C5.68555 1.84961 5.83608 2.2107 6.10621 2.48396C6.37634 2.75722 6.74572 2.92208 7.13907 2.94493V2.94679Z" fill="white"/>
</svg>
