<svg width="22" height="15" viewBox="0 0 22 15" fill="none" xmlns="http://www.w3.org/2000/svg">
<path d="M3.78125 0C2.7784 0 1.81662 0.362164 1.1075 1.00682C0.398381 1.65148 0 2.52582 0 3.4375V5H22V3.4375C22 2.52582 21.6016 1.65148 20.8925 1.00682C20.1834 0.362164 19.2216 0 18.2188 0H3.78125ZM22 6.25H0V11.5625C0 12.4742 0.398381 13.3485 1.1075 13.9932C1.81662 14.6378 2.7784 15 3.78125 15H18.2188C19.2216 15 20.1834 14.6378 20.8925 13.9932C21.6016 13.3485 22 12.4742 22 11.5625V6.25ZM15.8125 11.25H18.5625C18.7448 11.25 18.9197 11.3158 19.0486 11.4331C19.1776 11.5503 19.25 11.7092 19.25 11.875C19.25 12.0408 19.1776 12.1997 19.0486 12.3169C18.9197 12.4342 18.7448 12.5 18.5625 12.5H15.8125C15.6302 12.5 15.4553 12.4342 15.3264 12.3169C15.1974 12.1997 15.125 12.0408 15.125 11.875C15.125 11.7092 15.1974 11.5503 15.3264 11.4331C15.4553 11.3158 15.6302 11.25 15.8125 11.25Z" fill="white"/>
</svg>
