<svg width="18" height="19" viewBox="0 0 18 19" fill="none" xmlns="http://www.w3.org/2000/svg">
<path id="Vector" d="M2.66667 0C1.19583 0 0 1.19583 0 2.66667V15.6667C0 17.1375 1.19583 18.3333 2.66667 18.3333H15.3333C16.8042 18.3333 18 17.1375 18 15.6667V5.66667H13.6667C12.9292 5.66667 12.3333 5.07083 12.3333 4.33333V0H2.66667ZM13.6667 0V4.33333H18L13.6667 0ZM5.33333 5.16667H8.33333C9.7125 5.16667 10.8333 6.2875 10.8333 7.66666C10.8333 8.72916 10.1708 9.63333 9.2375 9.99583L11.0292 11.675L12.4375 10.3833C12.775 10.0708 13.3042 10.0958 13.6167 10.4333C13.9292 10.7708 13.9042 11.3 13.5667 11.6125L12.25 12.8208L13.5708 14.0583C13.9083 14.375 13.925 14.9 13.6083 15.2375C13.2917 15.575 12.7667 15.5917 12.4292 15.275L11.0167 13.95L9.5625 15.2833C9.225 15.5958 8.69583 15.5708 8.38333 15.2333C8.07083 14.8958 8.09583 14.3667 8.43333 14.0542L9.79167 12.8083L7.09167 10.275C7.05417 10.2417 7.025 10.2042 6.99583 10.1667H6.16667V12C6.16667 12.4583 5.79167 12.8333 5.33333 12.8333C4.875 12.8333 4.5 12.4583 4.5 12V6C4.5 5.54167 4.875 5.16667 5.33333 5.16667ZM8.33333 8.5C8.79167 8.5 9.16667 8.125 9.16667 7.66666C9.16667 7.20833 8.79167 6.83333 8.33333 6.83333H6.16667V8.5H8.33333Z" fill="white"/>
</svg>
