<svg width="57" height="57" viewBox="0 0 57 57" fill="none" xmlns="http://www.w3.org/2000/svg">
<g id="Refresh">
<g id="Ellipse 263" opacity="0.6" filter="url(#filter0_d_2617_958)">
<circle cx="26.5" cy="26.5" r="22.5" fill="#EDF6F9"/>
</g>
<g id="Group">
<g id="Icon">
<path d="M25.9991 25.6166C23.6238 25.6166 21.6913 23.6838 21.6913 21.308C21.6913 18.9325 23.6238 17 25.9991 17C28.3747 17 30.3074 18.9326 30.3074 21.308C30.3074 23.6838 28.3747 25.6166 25.9991 25.6166Z" fill="#DE4AC4"/>
<path d="M28.6921 35H23.3079C20.9325 35 19 33.0674 19 30.6919C19 28.3164 20.9325 26.3838 23.3079 26.3838H28.6921C31.0675 26.3838 33 28.3164 33 30.6919C33 33.0674 31.0675 35 28.6921 35Z" fill="#DE4AC4"/>
</g>
</g>
</g>
<defs>
<filter id="filter0_d_2617_958" x="0" y="0" width="57" height="57" filterUnits="userSpaceOnUse" color-interpolation-filters="sRGB">
<feFlood flood-opacity="0" result="BackgroundImageFix"/>
<feColorMatrix in="SourceAlpha" type="matrix" values="0 0 0 0 0 0 0 0 0 0 0 0 0 0 0 0 0 0 127 0" result="hardAlpha"/>
<feOffset dx="2" dy="2"/>
<feGaussianBlur stdDeviation="3"/>
<feComposite in2="hardAlpha" operator="out"/>
<feColorMatrix type="matrix" values="0 0 0 0 0 0 0 0 0 0 0 0 0 0 0 0 0 0 0.08 0"/>
<feBlend mode="normal" in2="BackgroundImageFix" result="effect1_dropShadow_2617_958"/>
<feBlend mode="normal" in="SourceGraphic" in2="effect1_dropShadow_2617_958" result="shape"/>
</filter>
</defs>
</svg>
