<svg width="20" height="19" viewBox="0 0 20 19" fill="none" xmlns="http://www.w3.org/2000/svg">
<path d="M5.07467 2.23435C5.17577 2.1343 5.25505 2.01439 5.3075 1.88218C5.35995 1.74997 5.38444 1.60832 5.37943 1.46617C5.37441 1.32402 5.34 1.18445 5.27836 1.05627C5.21672 0.928079 5.12919 0.814053 5.02128 0.721379C4.47828 0.257952 3.7884 0.00231588 3.07452 0L2.91726 0.0043281H2.89418C1.26627 0.103397 -0.00335976 1.5173 6.67903e-06 3.22216C6.67903e-06 4.13591 0.384742 4.61971 0.688683 5.00685C0.773971 5.11508 0.880891 5.20434 1.00262 5.26893C1.12434 5.33352 1.25819 5.37202 1.39563 5.38197C1.40814 5.38197 1.4293 5.38437 1.49182 5.38437C1.61545 5.38419 1.73776 5.359 1.8514 5.31032C1.96504 5.26164 2.06766 5.19048 2.15308 5.10111L5.07467 2.23435ZM17.1073 0.00529014L16.95 0.000481022H16.925C16.2105 0.00234141 15.5198 0.258006 14.9763 0.72186C14.8686 0.814528 14.7812 0.928499 14.7196 1.0566C14.6581 1.1847 14.6237 1.32415 14.6187 1.46618C14.6137 1.60821 14.6381 1.74974 14.6905 1.88186C14.7428 2.01398 14.822 2.13383 14.9229 2.23387L17.8455 5.10255C17.9311 5.19224 18.034 5.26363 18.148 5.3124C18.262 5.36117 18.3847 5.38631 18.5087 5.3863C18.5702 5.3863 18.5914 5.3863 18.6048 5.38389C18.7422 5.37388 18.876 5.33535 18.9976 5.27076C19.1192 5.20618 19.2261 5.11695 19.3113 5.00877C19.6172 4.62163 19.9981 4.13927 20 3.22408C20.0029 1.5173 18.7333 0.103398 17.1073 0.00529014Z" fill="white"/>
<path d="M10.0031 1.53906C5.33822 1.53906 1.53896 5.33592 1.53896 10.0032C1.53731 11.9821 2.2321 13.8985 3.50159 15.4165L1.76451 17.154C1.69136 17.2251 1.63307 17.31 1.59303 17.4038C1.55298 17.4976 1.53199 17.5985 1.53127 17.7004C1.53055 17.8024 1.55011 17.9036 1.58882 17.9979C1.62752 18.0923 1.68461 18.178 1.75674 18.2501C1.82888 18.3222 1.91463 18.3793 2.00901 18.4179C2.1034 18.4566 2.20452 18.4761 2.30651 18.4753C2.40851 18.4746 2.50933 18.4535 2.60312 18.4135C2.6969 18.3734 2.78179 18.3151 2.85283 18.2419L4.58991 16.5048C6.10874 17.7729 8.02454 18.4675 10.0031 18.4675C11.9817 18.4675 13.8975 17.7729 15.4164 16.5048L17.1539 18.2419C17.225 18.3151 17.3099 18.3734 17.4036 18.4135C17.4974 18.4535 17.5982 18.4746 17.7002 18.4753C17.8022 18.4761 17.9034 18.4566 17.9977 18.4179C18.0921 18.3793 18.1779 18.3222 18.25 18.2501C18.3221 18.178 18.3792 18.0923 18.4179 17.9979C18.4566 17.9036 18.4762 17.8024 18.4755 17.7004C18.4748 17.5985 18.4538 17.4976 18.4137 17.4038C18.3737 17.31 18.3154 17.2251 18.2422 17.154L16.5047 15.4165C17.7744 13.8986 18.4692 11.9822 18.4673 10.0032C18.4673 5.33832 14.6705 1.53906 10.0031 1.53906ZM10.7726 10.0032C10.7726 10.2073 10.6915 10.403 10.5472 10.5473C10.4029 10.6916 10.2072 10.7727 10.0031 10.7727H6.15578C5.95171 10.7727 5.75599 10.6916 5.61169 10.5473C5.46738 10.403 5.38631 10.2073 5.38631 10.0032C5.38631 9.79916 5.46738 9.60345 5.61169 9.45914C5.75599 9.31484 5.95171 9.23377 6.15578 9.23377H9.23367V4.61695C9.23367 4.41287 9.31474 4.21715 9.45904 4.07285C9.60334 3.92854 9.79906 3.84747 10.0031 3.84747C10.2072 3.84747 10.4029 3.92854 10.5472 4.07285C10.6915 4.21715 10.7726 4.41287 10.7726 4.61695V10.0032Z" fill="white"/>
</svg>
