<svg width="19" height="19" viewBox="0 0 19 19" fill="none" xmlns="http://www.w3.org/2000/svg">
<path d="M16.3789 9.97753C16.4187 9.69354 16.4386 9.40009 16.4386 9.0877C16.4386 8.78477 16.4187 8.48185 16.369 8.19786L18.3867 6.70218C18.4737 6.63392 18.5331 6.53907 18.5548 6.43377C18.5766 6.32848 18.5593 6.21926 18.506 6.12473L16.5976 2.9819C16.5414 2.88683 16.4517 2.81376 16.3444 2.77564C16.237 2.73752 16.119 2.73681 16.0112 2.77364L13.6356 3.68241C13.1386 3.32269 12.6118 3.01977 12.0253 2.79257L11.6675 0.388123C11.6499 0.279762 11.5921 0.181006 11.5045 0.10979C11.417 0.0385735 11.3055 -0.000380078 11.1904 2.79579e-06H7.37359C7.13503 2.79579e-06 6.94618 0.160931 6.90642 0.388123L6.54859 2.79257C5.96215 3.01977 5.42541 3.33216 4.93837 3.68241L2.56279 2.77364C2.34411 2.69791 2.09562 2.77364 1.97635 2.9819L0.0778704 6.12473C-0.0414056 6.32352 -0.00164707 6.56965 0.197146 6.70218L2.2149 8.19786C2.1652 8.48185 2.12544 8.79424 2.12544 9.0877C2.12544 9.38115 2.14532 9.69354 2.19502 9.97753L0.177267 11.4732C0.0903187 11.5415 0.030909 11.6363 0.00915989 11.7416C-0.0125892 11.8469 0.00466795 11.9561 0.0579911 12.0507L1.96641 15.1935C2.08568 15.4017 2.33417 15.468 2.55285 15.4017L4.92843 14.493C5.42541 14.8527 5.95221 15.1556 6.53865 15.3828L6.89648 17.7873C6.94618 18.0145 7.13503 18.1754 7.37359 18.1754H11.1904C11.429 18.1754 11.6278 18.0145 11.6576 17.7873L12.0154 15.3828C12.6018 15.1556 13.1386 14.8527 13.6256 14.493L16.0012 15.4017C16.2199 15.4775 16.4684 15.4017 16.5877 15.1935L18.4961 12.0507C18.6153 11.8424 18.5656 11.6057 18.3768 11.4732L16.3789 9.97753ZM9.282 12.4956C7.31395 12.4956 5.70372 10.962 5.70372 9.0877C5.70372 7.21336 7.31395 5.67981 9.282 5.67981C11.2501 5.67981 12.8603 7.21336 12.8603 9.0877C12.8603 10.962 11.2501 12.4956 9.282 12.4956Z" fill="white"/>
</svg>
