<svg width="22" height="18" viewBox="0 0 22 18" fill="none" xmlns="http://www.w3.org/2000/svg">
<path d="M2.67406 3.92563H3.70531V17.9953H2.67406C2.1617 17.9953 1.67032 17.7918 1.30802 17.4295C0.945724 17.0672 0.742188 16.5758 0.742188 16.0634V5.86094C0.742187 5.34826 0.945613 4.85652 1.30781 4.49368C1.67001 4.13084 2.16138 3.92654 2.67406 3.92563ZM19.4319 3.92563H18.4006V17.9953H19.4319C19.9446 17.9953 20.4363 17.7919 20.7991 17.4297C21.162 17.0675 21.3663 16.5761 21.3672 16.0634V5.86094C21.3663 5.34794 21.1621 4.85621 20.7993 4.49347C20.4366 4.13072 19.9449 3.92653 19.4319 3.92563ZM16.1112 3.92563H17.1219V17.9953H4.9875V3.92563H5.73C5.8816 2.8385 6.42068 1.84269 7.24807 1.12141C8.07546 0.400135 9.13549 0.00190706 10.2331 0H11.6081C12.706 0.00118688 13.7664 0.399161 14.5939 1.12057C15.4215 1.84198 15.9603 2.83821 16.1112 3.92563ZM7.03281 3.92563H14.805C14.6599 3.18328 14.2614 2.51441 13.6776 2.03346C13.0938 1.55251 12.3611 1.28937 11.6047 1.28906H10.2297C9.47407 1.29082 8.74244 1.55456 8.15949 2.03533C7.57655 2.5161 7.17837 3.18415 7.03281 3.92563ZM14.3891 10.9622C14.3891 10.792 14.3219 10.6286 14.2022 10.5076C14.0825 10.3866 13.9199 10.3177 13.7497 10.3159H11.8247V8.39437C11.8312 8.30578 11.8193 8.21679 11.7898 8.13298C11.7604 8.04917 11.714 7.97234 11.6535 7.90727C11.593 7.84221 11.5198 7.79031 11.4383 7.75483C11.3569 7.71934 11.269 7.70102 11.1802 7.70102C11.0913 7.70102 11.0034 7.71934 10.922 7.75483C10.8406 7.79031 10.7673 7.84221 10.7068 7.90727C10.6463 7.97234 10.5999 8.04917 10.5705 8.13298C10.541 8.21679 10.5292 8.30578 10.5356 8.39437V10.3159H8.59344C8.43063 10.3278 8.27836 10.4009 8.16721 10.5205C8.05607 10.64 7.99429 10.7972 7.99429 10.9605C7.99429 11.1237 8.05607 11.2809 8.16721 11.4005C8.27836 11.52 8.43063 11.5931 8.59344 11.605H10.5219V13.53C10.5154 13.6186 10.5273 13.7076 10.5567 13.7914C10.5862 13.8752 10.6326 13.952 10.6931 14.0171C10.7536 14.0822 10.8268 14.1341 10.9083 14.1695C10.9897 14.205 11.0776 14.2234 11.1664 14.2234C11.2552 14.2234 11.3431 14.205 11.4246 14.1695C11.506 14.1341 11.5793 14.0822 11.6397 14.0171C11.7002 13.952 11.7466 13.8752 11.7761 13.7914C11.8056 13.7076 11.8174 13.6186 11.8109 13.53V11.605H13.7497C13.9196 11.6041 14.0822 11.536 14.202 11.4155C14.3218 11.2951 14.3891 11.1321 14.3891 10.9622Z" fill="white"/>
</svg>
